<svg width="18" height="17" viewBox="0 0 18 17" fill="none" xmlns="http://www.w3.org/2000/svg">
<path d="M12.7219 15.3134C12.7057 15.741 12.5343 16.148 12.2398 16.4584C11.9452 16.7689 11.5477 16.9614 11.1215 17H1.60036C0.720072 17 0 15.9884 0 14.75V14.1884C0 13.8518 0.0792078 13.6268 0.0792078 13.2884C0.159616 12.7256 0.239424 12.2756 0.318632 11.9384C0.79928 10.4768 4.07921 8.6768 6.39964 8.6768C7.65725 8.76017 8.88357 9.10534 10 9.6902C10.9396 9.02112 12.0491 8.63113 13.2007 8.5652C14.1102 8.61013 14.9966 8.8677 15.7885 9.31723C16.5804 9.76676 17.2558 10.3957 17.7606 11.1536C17.8697 11.5185 17.9237 11.8977 17.9208 12.2786C17.9208 12.5036 18 12.7286 18 12.9536V13.4C18 14.525 17.3591 15.425 16.6391 15.425H12.7219V15.3134ZM11.8416 11.15C12.1115 11.3894 12.306 11.7021 12.4014 12.05C12.5046 12.4196 12.5846 12.7954 12.6409 13.175H16.4014C16.4142 13.0207 16.3869 12.8657 16.3222 12.725C16.3222 12.6134 16.3222 12.3884 16.243 12.3884C16.243 12.3884 16.1638 12.275 16.0828 12.275C15.83 12.0686 15.5629 11.8803 15.2835 11.7116C14.6374 11.2962 13.891 11.063 13.1233 11.0366C12.9177 10.9462 12.6925 10.9092 12.4688 10.929C12.245 10.9489 12.0299 11.0249 11.8434 11.15H11.8416ZM13.1233 7.5C11.7624 7.5 10.8029 6.975 10.8029 5.0616C10.8029 3.1482 11.7642 2.25 13.1233 2.25C14.4824 2.25 15.6022 3.1482 15.6022 5.0616C15.6022 6.975 14.4824 7.5 13.1233 7.5ZM13.2025 6.1866C13.6832 6.1866 14.0018 5.7366 14.0018 5.0616C14.0018 4.3866 13.6814 3.9366 13.2025 3.9366C12.7237 3.9366 12.4032 4.3866 12.4032 5.0616C12.4032 5.7366 12.7237 6.1866 13.2025 6.1866ZM6.39964 7.5C4.79928 7.5 3.44194 6.4134 3.44194 4.1634C3.44194 1.9134 4.79928 0.5 6.39964 0.5C8 0.5 9.36094 1.9134 9.36094 4.1616C9.36094 6.4098 7.9982 7.5 6.39964 7.5ZM6.40144 6.075C7.12151 6.075 7.76238 5.175 7.76238 4.1634C7.76238 3.1518 7.12151 2.25 6.40144 2.25C5.68137 2.25 5.0405 3.15 5.0405 4.1616C5.0405 5.1732 5.68137 6.075 6.40144 6.075ZM11.0423 13.0634C10.9576 12.9321 10.8489 12.8179 10.7219 12.7268C10.3621 12.4453 9.98843 12.1822 9.60216 11.9384C8.63157 11.35 7.53393 11.0031 6.40144 10.9268C5.26337 10.9724 4.15823 11.3216 3.20072 11.9384C2.81445 12.1822 2.44074 12.4453 2.08101 12.7268C1.95383 12.8184 1.84511 12.9332 1.76058 13.0652C1.7202 13.2883 1.69375 13.5138 1.68137 13.7402C1.68137 13.9652 1.60216 14.3018 1.60216 14.5286V14.7536H11.1215V14.5286C11.1215 14.3036 11.0423 13.967 11.0423 13.742V13.067V13.0634Z" fill="#8E7648"/>
</svg>
