<svg width="30" height="29" viewBox="0 0 30 29" fill="none" xmlns="http://www.w3.org/2000/svg">
<path d="M15.221 28.797C23.1733 28.797 29.62 22.3506 29.62 14.3985C29.62 6.44643 23.1733 0 15.221 0L14.399 0C6.44662 0 -3.62396e-05 6.44643 -3.62396e-05 14.3985C-3.62396e-05 22.3506 6.44662 28.797 14.399 28.797H15.221Z" fill="#8E7648"/>
<path d="M20.71 14.445C20.7094 14.6364 20.6332 14.8197 20.4979 14.955C20.3626 15.0903 20.1793 15.1665 19.988 15.167H10.21L12.953 18.245C13.0179 18.3158 13.0682 18.3988 13.1007 18.4891C13.1333 18.5795 13.1476 18.6754 13.1427 18.7713C13.1379 18.8673 13.114 18.9613 13.0724 19.0479C13.0309 19.1345 12.9725 19.2119 12.9007 19.2758C12.8289 19.3396 12.7452 19.3885 12.6543 19.4196C12.5634 19.4507 12.4673 19.4635 12.3714 19.4571C12.2756 19.4507 12.182 19.4253 12.0961 19.3824C12.0101 19.3394 11.9336 19.2798 11.871 19.207L8.17896 15.058C8.06773 14.9306 8.00447 14.7684 8.00009 14.5994C7.99571 14.4303 8.05048 14.265 8.15496 14.132C8.21783 14.0012 8.31849 13.8921 8.44396 13.819L11.895 10.224C12.0276 10.0853 12.2098 10.005 12.4017 10.0007C12.5935 9.99636 12.7793 10.0684 12.918 10.201C13.0567 10.3336 13.137 10.5159 13.1413 10.7078C13.1456 10.8996 13.0736 11.0853 12.941 11.224L10.536 13.724H19.988C20.1791 13.7246 20.3623 13.8007 20.4976 13.9357C20.6328 14.0708 20.7092 14.2539 20.71 14.445Z" fill="white" stroke="white" stroke-width="0.7"/>
</svg>
