<svg width="68" height="68" viewBox="0 0 68 68" fill="none" xmlns="http://www.w3.org/2000/svg">
<path d="M28.2068 50.7295V42.6183C28.0466 41.7683 27.5945 41.001 26.9287 40.4489C26.2628 39.8969 25.4251 39.5947 24.5601 39.5947C23.6952 39.5947 22.8574 39.8969 22.1916 40.4489C21.5258 41.001 21.0737 41.7683 20.9135 42.6183V50.7295C20.0426 51.2142 19.3504 51.9659 18.9391 52.8737C18.5278 53.7816 18.419 54.7976 18.6288 55.7719C18.9371 56.7755 19.5214 57.6722 20.3151 58.3595C21.1087 59.0467 22.0797 59.4969 23.117 59.6586C23.5931 59.7577 24.0773 59.812 24.5635 59.8208C25.7576 59.8752 26.9413 59.5766 27.9667 58.9623C28.9921 58.348 29.8138 57.4453 30.3292 56.3668C30.7148 55.3291 30.7123 54.1872 30.3222 53.1512C29.9322 52.1153 29.1809 51.2552 28.2068 50.7295ZM26.8549 57.1238C26.2993 57.4979 25.663 57.7352 24.998 57.8162C24.3331 57.8973 23.6584 57.8198 23.0292 57.5902C22.4442 57.4125 21.9252 57.0652 21.5377 56.5923C21.1503 56.1195 20.9119 55.5422 20.8526 54.9338C20.8514 54.3286 21.0344 53.7374 21.3773 53.2387C21.7202 52.7401 22.2068 52.3576 22.7723 52.1422C22.9469 52.0689 23.0969 51.9473 23.2047 51.7916C23.3124 51.6359 23.3735 51.4527 23.3806 51.2635V42.6521C23.4328 42.3674 23.5831 42.1101 23.8054 41.9249C24.0277 41.7396 24.3079 41.6382 24.5973 41.6382C24.8867 41.6382 25.1669 41.7396 25.3892 41.9249C25.6115 42.1101 25.7618 42.3674 25.814 42.6521V51.2837C25.8211 51.4729 25.8822 51.6562 25.99 51.8119C26.0977 51.9675 26.2478 52.0892 26.4223 52.1624C26.9024 52.3723 27.3198 52.703 27.6338 53.1224C27.9477 53.5418 28.1475 54.0355 28.2136 54.5553C28.2434 55.0678 28.1334 55.5787 27.8953 56.0335C27.6572 56.4883 27.2999 56.8699 26.8617 57.1373L26.8549 57.1238Z" fill="#11906D"/>
<path d="M66.7283 40.6439L63.0579 39.8463C61.2334 39.4387 59.5092 38.6693 57.9871 37.5838C56.4651 36.4983 55.1761 35.1186 54.1964 33.5264C54.097 33.3627 53.957 33.2274 53.7901 33.1335C53.6232 33.0396 53.4349 32.9903 53.2434 32.9903C53.0519 32.9903 52.8636 33.0396 52.6966 33.1335C52.5297 33.2274 52.3898 33.3627 52.2903 33.5264C50.907 35.7697 48.9112 37.5709 46.5381 38.7175V34.1009C46.5337 33.0341 46.2162 31.9921 45.625 31.1042C45.0339 30.2162 44.195 29.5213 43.2125 29.1057V18.8383C43.2125 13.8421 41.2278 9.05048 37.6949 5.51761C34.162 1.98474 29.3704 0 24.3742 0C19.378 0 14.5864 1.98474 11.0535 5.51761C7.52065 9.05048 5.5359 13.8421 5.5359 18.8383V29.1057C4.55468 29.5224 3.71723 30.2177 3.12731 31.1056C2.53738 31.9935 2.2209 33.0349 2.21707 34.1009V37.3724H1.10853C0.817483 37.3706 0.537542 37.4841 0.329844 37.688C0.122146 37.8918 0.00356562 38.1696 0 38.4607V58.0628C0.00356562 58.3538 0.122146 58.6316 0.329844 58.8355C0.537542 59.0394 0.817483 59.1528 1.10853 59.151H2.21707V62.4226C2.22325 63.1442 2.37153 63.8576 2.65343 64.522C2.93532 65.1863 3.34532 65.7887 3.86001 66.2946C4.3747 66.8005 4.984 67.2 5.65312 67.4704C6.32223 67.7409 7.03806 67.8768 7.75973 67.8706H41.0022C41.7239 67.8768 42.4397 67.7409 43.1088 67.4704C43.7779 67.2 44.3872 66.8005 44.9019 66.2946C45.4166 65.7887 45.8266 65.1863 46.1085 64.522C46.3904 63.8576 46.5387 63.1442 46.5449 62.4226V62.2806C48.0668 64.0382 49.7758 65.6247 51.6414 67.0122L52.5269 67.6881C52.7216 67.835 52.9589 67.9145 53.2028 67.9145C53.4468 67.9145 53.684 67.835 53.8787 67.6881L54.7642 67.0122C58.7233 64.0882 61.9448 60.2801 64.1721 55.8912C66.3994 51.5023 67.571 46.6539 67.5935 41.7322C67.5975 41.4787 67.5135 41.2316 67.3557 41.0332C67.1979 40.8347 66.9762 40.6971 66.7283 40.6439ZM7.75973 18.8383C7.75973 14.4301 9.51089 10.2024 12.628 7.08531C15.7451 3.96823 19.9727 2.21707 24.381 2.21707C28.7892 2.21707 33.0169 3.96823 36.1339 7.08531C39.251 10.2024 41.0022 14.4301 41.0022 18.8383V28.6529H36.5681V18.8383C36.5681 15.6052 35.2837 12.5045 32.9976 10.2183C30.7114 7.93217 27.6107 6.64782 24.3776 6.64782C21.1445 6.64782 18.0438 7.93217 15.7576 10.2183C13.4715 12.5045 12.1871 15.6052 12.1871 18.8383V28.6529H7.75973V18.8383ZM34.351 28.6529H14.4042V18.8383C14.4719 16.2381 15.5523 13.7672 17.4153 11.9521C19.2783 10.137 21.7765 9.12117 24.3776 9.12117C26.9786 9.12117 29.4768 10.137 31.3398 11.9521C33.2028 13.7672 34.2833 16.2381 34.351 18.8383V28.6529ZM13.2956 39.5489V43.9087H2.21707V39.5489H13.2956ZM2.21707 56.9948V52.635H13.2956V56.9948H2.21707ZM13.2956 50.4518H2.21707V46.092H13.2956V50.4518ZM44.321 62.4428C44.3175 62.876 44.2287 63.3043 44.0596 63.7031C43.8906 64.102 43.6446 64.4636 43.3358 64.7674C43.027 65.0712 42.6614 65.3112 42.2598 65.4736C41.8583 65.6361 41.4286 65.7179 40.9954 65.7144H7.75973C7.32655 65.7179 6.89691 65.6361 6.49535 65.4736C6.09378 65.3112 5.72816 65.0712 5.41934 64.7674C5.11053 64.4636 4.86458 64.102 4.69554 63.7031C4.52649 63.3043 4.43767 62.876 4.43413 62.4428V59.1781H14.4042C14.5517 59.1835 14.6987 59.1593 14.8367 59.1067C14.9746 59.0542 15.1006 58.9746 15.2072 58.8724C15.3137 58.7703 15.3987 58.6478 15.4569 58.5122C15.5152 58.3766 15.5457 58.2307 15.5465 58.0831V38.481C15.5429 38.1899 15.4244 37.9121 15.2167 37.7082C15.009 37.5043 14.729 37.3909 14.438 37.3927H4.43413V34.1009C4.43767 33.6677 4.52649 33.2395 4.69554 32.8406C4.86458 32.4418 5.11053 32.0801 5.41934 31.7764C5.72816 31.4726 6.09378 31.2326 6.49535 31.0701C6.89691 30.9076 7.32655 30.8258 7.75973 30.8294H41.0022C41.8759 30.824 42.716 31.1654 43.3382 31.7788C43.9604 32.3921 44.3139 33.2272 44.321 34.1009V39.5489C43.9898 39.6503 43.6451 39.745 43.3139 39.8193L39.6436 40.6372C39.3957 40.6904 39.1739 40.8279 39.0161 41.0264C38.8583 41.2249 38.7743 41.4719 38.7784 41.7254C38.8016 48.0498 40.7334 54.2198 44.321 59.4282V62.4428ZM53.4056 65.275L53.1825 65.4372L52.9595 65.275C49.3851 62.6411 46.4524 59.2332 44.3807 55.3062C42.3089 51.3792 41.1517 47.0346 40.9954 42.5974L43.7735 41.9891C47.5123 41.1799 50.8448 39.0755 53.1825 36.0476C55.5169 39.0728 58.8442 41.1769 62.578 41.9891L65.3696 42.5974C65.2136 47.0364 64.0558 51.3826 61.9828 55.3109C59.9098 59.2392 56.9753 62.6478 53.3988 65.2818L53.4056 65.275Z" fill="#11906D"/>
<path d="M58.9686 45.1245L56.8056 44.2188L55.981 45.5706C54.0968 44.6322 51.9594 44.3285 49.8884 44.705C47.8173 45.0814 45.9236 46.1178 44.4901 47.6593C43.8842 48.373 43.443 49.2114 43.1978 50.1149C42.9526 51.0185 42.9095 51.9649 43.0715 52.887C43.2334 53.8091 43.5965 54.6842 44.1349 55.4501C44.6733 56.216 45.3739 56.8538 46.1867 57.3184C47.9613 58.4612 50.0542 59.008 52.1611 58.8791C54.2679 58.7503 56.2786 57.9525 57.9007 56.6019C58.6234 56.0104 59.2057 55.2657 59.6055 54.4218C60.0054 53.5778 60.2128 52.6555 60.2128 51.7216C60.2128 50.7877 60.0054 49.8655 59.6055 49.0215C59.2057 48.1775 58.6234 47.4329 57.9007 46.8414L58.9686 45.1245ZM57.8871 51.7419C57.8176 52.9638 57.3305 54.1247 56.5073 55.0303C55.6841 55.9359 54.5748 56.5313 53.3651 56.7168C52.1036 57.0362 50.7764 56.982 49.5451 56.5608C48.3138 56.1395 47.2316 55.3694 46.43 54.3443C45.7568 53.3873 45.4853 52.2046 45.6736 51.0498C45.8618 49.895 46.4949 48.8599 47.4372 48.1662C48.4845 47.3627 49.7349 46.8669 51.0482 46.7344C52.3615 46.6019 53.6858 46.8379 54.8725 47.4159L51.5942 52.8707L49.1608 50.167L47.2141 51.3769L50.8574 55.4325C50.9828 55.5638 51.134 55.6676 51.3015 55.7374C51.4691 55.8073 51.6493 55.8415 51.8307 55.8381H51.9389C52.1333 55.8288 52.3228 55.7737 52.4919 55.6774C52.6611 55.5811 52.805 55.4463 52.9122 55.2838L56.7651 48.8827C57.4644 49.6727 57.8577 50.687 57.8736 51.7419H57.8871Z" fill="#11906D"/>
</svg>
