<svg width="30" height="36" viewBox="0 0 30 36" fill="none" xmlns="http://www.w3.org/2000/svg">
<path d="M22 21V16.5556V1H1V32.1111H15.5" stroke="#FF7A00" stroke-width="2"/>
<path d="M13.4249 7L13.2582 19.124H10.7917L10.625 7H13.4249ZM12.1251 23.9651C11.714 23.9651 11.3612 23.8196 11.0668 23.5286C10.7723 23.2376 10.6251 22.8889 10.6251 22.4826C10.6251 22.0762 10.7723 21.7276 11.0668 21.4365C11.3612 21.1455 11.714 21 12.1251 21C12.5362 21 12.889 21.1455 13.1834 21.4365C13.4779 21.7276 13.6251 22.0762 13.6251 22.4826C13.6251 22.7516 13.5556 22.9987 13.4167 23.2238C13.2834 23.449 13.1029 23.6302 12.8751 23.7674C12.6529 23.8992 12.4029 23.9651 12.1251 23.9651Z" fill="#FF7A00"/>
<line x1="12" y1="25" x2="12" y2="32" stroke="#FF7A00" stroke-width="2"/>
<line x1="12.0576" y1="1.00035" x2="12.0533" y2="5.00189" stroke="#FF7A00" stroke-width="2"/>
<path d="M15.4212 25.026C15.3289 24.8238 15.2989 24.5966 15.3352 24.3758C15.3715 24.155 15.4724 23.9514 15.624 23.7931L16.5995 22.7724C16.7508 22.6141 16.9453 22.5088 17.1562 22.4709C17.3671 22.433 17.584 22.4645 17.7771 22.561L18.7947 21.4963C19.0534 21.2256 19.4043 21.0736 19.7702 21.0736C20.136 21.0736 20.4869 21.2256 20.7457 21.4963L22.6973 23.5383C22.956 23.809 23.1013 24.1761 23.1013 24.5589C23.1013 24.9417 22.956 25.3089 22.6973 25.5796L21.7211 26.6003L21.6866 26.5641L19.2479 29.1165L19.2824 29.1526L18.3069 30.1733C18.1788 30.3074 18.0267 30.4137 17.8592 30.4863C17.6918 30.5589 17.5123 30.5963 17.3311 30.5963C17.1499 30.5963 16.9704 30.5589 16.803 30.4863C16.6355 30.4137 16.4834 30.3074 16.3553 30.1733L14.4043 28.1319C14.2761 27.9979 14.1745 27.8387 14.1051 27.6635C14.0357 27.4883 14 27.3006 14 27.1109C14 26.9213 14.0357 26.7335 14.1051 26.5584C14.1745 26.3832 14.2761 26.224 14.4043 26.0899L15.4205 25.026H15.4212ZM20.2227 30.1364L22.6621 27.5848L25.136 30.1733L22.6973 32.7256L20.2234 30.1371L20.2227 30.1364ZM23.6721 33.7455L26.1115 31.1939L27.3312 32.4701C27.6524 32.8089 27.8321 33.2671 27.8312 33.7443C27.8302 34.2216 27.6487 34.679 27.3262 35.0165C27.0037 35.354 26.5666 35.5441 26.1105 35.5452C25.6544 35.5463 25.2165 35.3583 24.8925 35.0224L23.6728 33.7463L23.6721 33.7455ZM25.6244 22.5169L28.5509 25.5796L25.9025 28.3506C25.4796 28.7931 24.6993 28.6957 24.1606 28.1319L23.185 27.1106C22.6462 26.5475 22.5525 25.7312 22.976 25.288L25.6238 22.5169H25.6244ZM26.5992 21.4963L26.8083 21.2776C27.2312 20.8344 28.0114 20.9325 28.5502 21.4963L29.5257 22.5169C30.0645 23.0807 30.1583 23.897 29.7347 24.3402L29.5257 24.5589L26.5999 21.4963H26.5992ZM17.8192 32.7256L19.2817 31.1939C19.3458 31.1269 19.4218 31.0737 19.5055 31.0373C19.5892 31.001 19.679 30.9823 19.7696 30.9823C19.8602 30.9822 19.9499 31.0009 20.0337 31.0371C20.1174 31.0733 20.1934 31.1265 20.2575 31.1936C20.3216 31.2606 20.3725 31.3401 20.4072 31.4277C20.4419 31.5153 20.4598 31.6091 20.4598 31.704C20.4599 31.7988 20.442 31.8927 20.4074 31.9803C20.3728 32.0679 20.3219 32.1475 20.2579 32.2145L18.7947 33.7469C18.924 33.8823 18.9967 34.0659 18.9967 34.2573C18.9967 34.4487 18.924 34.6322 18.7947 34.7676L17.8192 35.7883C17.7551 35.8554 17.679 35.9086 17.5953 35.9449C17.5115 35.9813 17.4218 36 17.3311 36C17.2404 36 17.1507 35.9813 17.0669 35.9449C16.9832 35.9086 16.9071 35.8554 16.843 35.7883L15.8675 34.7676C15.7382 34.6322 15.6656 34.4487 15.6656 34.2573C15.6656 34.0659 15.7382 33.8823 15.8675 33.7469L16.843 32.7263C16.9071 32.6592 16.9832 32.606 17.0669 32.5696C17.1507 32.5333 17.2404 32.5146 17.3311 32.5146C17.4218 32.5146 17.5115 32.5333 17.5953 32.5696C17.679 32.606 17.7551 32.6592 17.8192 32.7263V32.7256Z" fill="#FF7A00"/>
</svg>
