<svg width="14" height="14" viewBox="0 0 14 14" fill="none" xmlns="http://www.w3.org/2000/svg">
<path d="M13.639 4.40601C13.408 4.17567 13.0952 4.04632 12.769 4.04632C12.4428 4.04632 12.13 4.17567 11.899 4.40601L10.665 5.64101V2.39101C10.6655 2.22939 10.6339 2.06928 10.5722 1.91994C10.5104 1.77061 10.4196 1.63501 10.305 1.52101L9.144 0.360006C9.03 0.24545 8.8944 0.154646 8.74506 0.0928514C8.59573 0.0310569 8.43562 -0.000500547 8.274 6.00278e-06H1.231C0.9046 0.000270831 0.591644 0.13005 0.360844 0.36085C0.130044 0.59165 0.000264828 0.904606 0 1.23101V12.77C0.000529483 13.0962 0.130426 13.4089 0.361197 13.6395C0.591968 13.8701 0.904773 13.9997 1.231 14H9.431C9.7574 13.9997 10.0704 13.87 10.3012 13.6392C10.532 13.4084 10.6617 13.0954 10.662 12.769V9.12301L13.636 6.14601C13.7505 6.03198 13.8414 5.89651 13.9035 5.74734C13.9656 5.59816 13.9977 5.43822 13.998 5.27663C13.9983 5.11504 13.9667 4.95498 13.9051 4.8056C13.8435 4.65621 13.7531 4.52043 13.639 4.40601ZM8.204 0.820006C8.26913 0.812445 8.33513 0.819272 8.39733 0.840007C8.45954 0.860742 8.51643 0.894878 8.564 0.940006L9.724 2.10001C9.76913 2.14757 9.80326 2.20447 9.824 2.26667C9.84473 2.32888 9.85156 2.39487 9.844 2.46001H8.204V0.820006ZM9.844 12.77C9.84374 12.8787 9.80046 12.9828 9.72362 13.0596C9.64679 13.1365 9.54266 13.1797 9.434 13.18H1.234C1.12534 13.1797 1.02121 13.1365 0.944378 13.0596C0.867545 12.9828 0.824264 12.8787 0.824 12.77V1.23101C0.824264 1.12235 0.867545 1.01822 0.944378 0.941384C1.02121 0.864551 1.12534 0.82127 1.234 0.821006H7.382V2.87101C7.382 2.97974 7.4252 3.08403 7.50209 3.16092C7.57898 3.23781 7.68326 3.28101 7.792 3.28101H9.844V6.46201L8.634 7.67401L8.054 8.25401C8.00868 8.29884 7.97444 8.35362 7.954 8.41401L7.374 10.154C7.34978 10.2263 7.3462 10.3039 7.36366 10.3781C7.38113 10.4524 7.41894 10.5202 7.47285 10.5742C7.52677 10.6281 7.59465 10.6659 7.66887 10.6833C7.74308 10.7008 7.8207 10.6972 7.893 10.673L9.633 10.093C9.69338 10.0726 9.74817 10.0383 9.793 9.99301L9.843 9.94301V12.77H9.844ZM8.924 8.54301L9.504 9.12301L9.282 9.34501L8.412 9.63501L8.702 8.76501L8.924 8.54301ZM10.084 8.54301L9.504 7.96301L11.476 5.99001L12.056 6.57001L10.084 8.54301ZM13.058 5.56601L12.635 5.98901L12.055 5.40901L12.478 4.98601C12.5161 4.94792 12.5613 4.91771 12.6111 4.8971C12.6608 4.87649 12.7141 4.86588 12.768 4.86588C12.8219 4.86588 12.8752 4.87649 12.9249 4.8971C12.9747 4.91771 13.0199 4.94792 13.058 4.98601C13.0961 5.02409 13.1263 5.0693 13.1469 5.11906C13.1675 5.16882 13.1781 5.22215 13.1781 5.27601C13.1781 5.32986 13.1675 5.38319 13.1469 5.43295C13.1263 5.48271 13.0961 5.52792 13.058 5.56601Z" fill="white"/>
<path d="M7.79411 4.10205H2.05111C1.94237 4.10205 1.83809 4.14525 1.7612 4.22214C1.68431 4.29903 1.64111 4.40332 1.64111 4.51205C1.64111 4.62079 1.68431 4.72508 1.7612 4.80197C1.83809 4.87886 1.94237 4.92206 2.05111 4.92206H7.79411C7.90285 4.92206 8.00714 4.87886 8.08403 4.80197C8.16092 4.72508 8.20411 4.62079 8.20411 4.51205C8.20411 4.40332 8.16092 4.29903 8.08403 4.22214C8.00714 4.14525 7.90285 4.10205 7.79411 4.10205Z" fill="white"/>
<path d="M6.15306 5.74304H2.05307C1.94433 5.74304 1.84004 5.78624 1.76315 5.86313C1.68626 5.94002 1.64307 6.04431 1.64307 6.15305C1.64307 6.26178 1.68626 6.36607 1.76315 6.44296C1.84004 6.51985 1.94433 6.56305 2.05307 6.56305H6.15306C6.2618 6.56305 6.36609 6.51985 6.44298 6.44296C6.51987 6.36607 6.56307 6.26178 6.56307 6.15305C6.56307 6.04431 6.51987 5.94002 6.44298 5.86313C6.36609 5.78624 6.2618 5.74304 6.15306 5.74304Z" fill="white"/>
<path d="M6.15306 7.38306H2.05307C1.94433 7.38306 1.84004 7.42625 1.76315 7.50314C1.68626 7.58003 1.64307 7.68432 1.64307 7.79306C1.64307 7.9018 1.68626 8.00609 1.76315 8.08298C1.84004 8.15987 1.94433 8.20306 2.05307 8.20306H6.15306C6.2618 8.20306 6.36609 8.15987 6.44298 8.08298C6.51987 8.00609 6.56307 7.9018 6.56307 7.79306C6.56307 7.68432 6.51987 7.58003 6.44298 7.50314C6.36609 7.42625 6.2618 7.38306 6.15306 7.38306Z" fill="white"/>
<path d="M6.15306 9.02405H2.05307C1.94433 9.02405 1.84004 9.06724 1.76315 9.14413C1.68626 9.22102 1.64307 9.32531 1.64307 9.43405C1.64307 9.54279 1.68626 9.64708 1.76315 9.72397C1.84004 9.80086 1.94433 9.84406 2.05307 9.84406H6.15306C6.2618 9.84406 6.36609 9.80086 6.44298 9.72397C6.51987 9.64708 6.56307 9.54279 6.56307 9.43405C6.56307 9.32531 6.51987 9.22102 6.44298 9.14413C6.36609 9.06724 6.2618 9.02405 6.15306 9.02405Z" fill="white"/>
<path d="M7.79312 11.54H5.33211C5.22337 11.54 5.1191 11.5832 5.04221 11.6601C4.96532 11.737 4.92212 11.8413 4.92212 11.95C4.92212 12.0588 4.96532 12.1631 5.04221 12.24C5.1191 12.3168 5.22337 12.36 5.33211 12.36H7.79312C7.90186 12.36 8.00613 12.3168 8.08302 12.24C8.15991 12.1631 8.20311 12.0588 8.20311 11.95C8.20311 11.8413 8.15991 11.737 8.08302 11.6601C8.00613 11.5832 7.90186 11.54 7.79312 11.54Z" fill="white"/>
</svg>
