<svg width="15" height="15" viewBox="0 0 15 15" fill="none" xmlns="http://www.w3.org/2000/svg">
<path d="M2.72699 2.86012V1.43006C2.71972 1.05996 2.85895 0.701985 3.11434 0.434123C3.36972 0.166262 3.72057 0.0102222 4.09044 0H13.6361C14.006 0.0102222 14.3568 0.166262 14.6122 0.434123C14.8676 0.701985 15.0068 1.05996 14.9995 1.43006V8.22323C15.0068 8.59333 14.8676 8.95131 14.6122 9.21917C14.3568 9.48703 14.006 9.64307 13.6361 9.65329H12.9536V12.1548C12.9585 12.2912 12.9221 12.4259 12.8492 12.5413C12.7763 12.6567 12.6702 12.7474 12.545 12.8015C12.4197 12.8557 12.2811 12.8707 12.1471 12.8448C12.0131 12.8188 11.8901 12.753 11.7942 12.656L10.9767 11.7976H6.06737L3.20397 14.7988C3.108 14.8958 2.98499 14.9616 2.85103 14.9876C2.71708 15.0136 2.5784 14.9985 2.45315 14.9444C2.32789 14.8902 2.22188 14.7995 2.14898 14.6841C2.07607 14.5687 2.03966 14.434 2.04451 14.2976V11.7991H1.36354C0.993666 11.7889 0.642819 11.6329 0.387435 11.365C0.13205 11.0972 -0.00717682 10.7392 8.7533e-05 10.3691V4.29019C-0.00717682 3.92009 0.13205 3.56211 0.387435 3.29425C0.642819 3.02639 0.993666 2.87035 1.36354 2.86012H2.72699ZM11.5902 8.93751C11.5822 8.84433 11.5942 8.75052 11.6252 8.6623C11.6563 8.57408 11.7057 8.49347 11.7702 8.4258C11.8347 8.35812 11.9129 8.30493 11.9995 8.26976C12.0861 8.23458 12.1792 8.21821 12.2726 8.22173H13.6361V1.43006H4.09044V8.22323H9.20375C9.29429 8.22066 9.38424 8.23863 9.46685 8.27579C9.54945 8.31296 9.62258 8.36835 9.68074 8.43782L11.5902 10.4396V8.93751ZM2.72699 4.28568H1.36354V10.3691H2.72699C2.82041 10.3656 2.91351 10.3819 3.00012 10.4171C3.08674 10.4523 3.1649 10.5055 3.22942 10.5731C3.29395 10.6408 3.34336 10.7214 3.3744 10.8096C3.40544 10.8979 3.41739 10.9917 3.40946 11.0849V12.5854L5.3174 10.5837C5.37555 10.5142 5.44868 10.4588 5.53129 10.4216C5.61389 10.3845 5.70384 10.3665 5.79438 10.3691H9.61324L8.93077 9.65329H4.09044C3.72057 9.64307 3.36972 9.48703 3.11434 9.21917C2.85895 8.95131 2.71972 8.59333 2.72699 8.22323V4.29019V4.28568Z" fill="#8E7648"/>
</svg>
