<svg width="14" height="14" viewBox="0 0 14 14" fill="none" xmlns="http://www.w3.org/2000/svg">
<path d="M13.7 0H0.3C0.220435 0 0.144129 0.0316071 0.087868 0.087868C0.0316071 0.144129 0 0.220435 0 0.3L0 13.7C0 13.7394 0.00775973 13.7784 0.0228361 13.8148C0.0379126 13.8512 0.0600104 13.8843 0.087868 13.9121C0.115726 13.94 0.148797 13.9621 0.185195 13.9772C0.221593 13.9922 0.260603 14 0.3 14H2.739C2.7784 14 2.81741 13.9922 2.85381 13.9772C2.8902 13.9621 2.92327 13.94 2.95113 13.9121C2.97899 13.8843 3.00109 13.8512 3.01616 13.8148C3.03124 13.7784 3.039 13.7394 3.039 13.7V13.4H10.952V13.7C10.952 13.7394 10.9598 13.7784 10.9748 13.8148C10.9899 13.8512 11.012 13.8843 11.0399 13.9121C11.0677 13.94 11.1008 13.9621 11.1372 13.9772C11.1736 13.9922 11.2126 14 11.252 14H13.7C13.7394 14 13.7784 13.9922 13.8148 13.9772C13.8512 13.9621 13.8843 13.94 13.9121 13.9121C13.94 13.8843 13.9621 13.8512 13.9772 13.8148C13.9922 13.7784 14 13.7394 14 13.7V0.3C14 0.260603 13.9922 0.221593 13.9772 0.185195C13.9621 0.148797 13.94 0.115726 13.9121 0.087868C13.8843 0.0600104 13.8512 0.0379126 13.8148 0.0228361C13.7784 0.00775973 13.7394 0 13.7 0ZM13.4 13.391H11.565V13.091C11.565 13.0114 11.5334 12.9351 11.4771 12.8789C11.4209 12.8226 11.3446 12.791 11.265 12.791H2.739C2.65944 12.791 2.58313 12.8226 2.52687 12.8789C2.47061 12.9351 2.439 13.0114 2.439 13.091V13.391H0.609V0.609H13.391L13.4 13.391Z" fill="white"/>
<path d="M11.261 3.04297H2.73897C2.6594 3.04297 2.58309 3.07458 2.52683 3.13084C2.47057 3.1871 2.43896 3.26341 2.43896 3.34297V13.082C2.43896 13.1615 2.47057 13.2378 2.52683 13.2941C2.58309 13.3504 2.6594 13.382 2.73897 13.382H11.261C11.3405 13.382 11.4168 13.3504 11.4731 13.2941C11.5294 13.2378 11.561 13.1615 11.561 13.082V3.34297C11.561 3.26341 11.5294 3.1871 11.4731 3.13084C11.4168 3.07458 11.3405 3.04297 11.261 3.04297ZM10.961 12.782H3.04397V3.65197H10.957L10.961 12.782Z" fill="white"/>
<path d="M6.99995 3.04298C6.92039 3.04298 6.84409 3.07459 6.78783 3.13085C6.73157 3.18711 6.69995 3.26342 6.69995 3.34298V13.082C6.69995 13.1627 6.73203 13.2402 6.78914 13.2973C6.84624 13.3544 6.9237 13.3865 7.00446 13.3865C7.08521 13.3865 7.16267 13.3544 7.21977 13.2973C7.27688 13.2402 7.30896 13.1627 7.30896 13.082V3.34298C7.30898 3.30282 7.30093 3.26305 7.28529 3.22606C7.26966 3.18906 7.24674 3.15559 7.21793 3.12761C7.18911 3.09963 7.15497 3.07772 7.11752 3.06318C7.08008 3.04865 7.0401 3.04178 6.99995 3.04298Z" fill="white"/>
<path d="M12.4781 6.69504C12.646 6.69504 12.7821 6.55893 12.7821 6.39104C12.7821 6.22314 12.646 6.08704 12.4781 6.08704C12.3102 6.08704 12.1741 6.22314 12.1741 6.39104C12.1741 6.55893 12.3102 6.69504 12.4781 6.69504Z" fill="white"/>
<path d="M12.4781 7.91196C12.646 7.91196 12.7821 7.77585 12.7821 7.60796C12.7821 7.44006 12.646 7.30396 12.4781 7.30396C12.3102 7.30396 12.1741 7.44006 12.1741 7.60796C12.1741 7.77585 12.3102 7.91196 12.4781 7.91196Z" fill="white"/>
<path d="M5.99805 1.91596L5.38904 1.30696C5.36108 1.27823 5.32765 1.2554 5.29073 1.23981C5.2538 1.22422 5.21413 1.21619 5.17404 1.21619C5.13396 1.21619 5.09429 1.22422 5.05736 1.23981C5.02043 1.2554 4.987 1.27823 4.95905 1.30696L4.35004 1.91596C4.29302 1.97298 4.26099 2.05032 4.26099 2.13096C4.26099 2.2116 4.29302 2.28894 4.35004 2.34596C4.40706 2.40298 4.48441 2.43502 4.56505 2.43502C4.64569 2.43502 4.72302 2.40298 4.78004 2.34596L5.17303 1.95196L5.56604 2.34596C5.62306 2.40312 5.70045 2.43528 5.78119 2.43537C5.86192 2.43547 5.93938 2.40348 5.99654 2.34646C6.05369 2.28944 6.08586 2.21205 6.08595 2.13132C6.08605 2.05058 6.05406 1.97312 5.99704 1.91596H5.99805Z" fill="white"/>
<path d="M9.65012 1.30696C9.62216 1.27823 9.58875 1.2554 9.55182 1.23981C9.51489 1.22422 9.4752 1.21619 9.43512 1.21619C9.39504 1.21619 9.35535 1.22422 9.31842 1.23981C9.28149 1.2554 9.24808 1.27823 9.22012 1.30696L8.82712 1.69996L8.43311 1.30696C8.37608 1.24994 8.29875 1.21791 8.21811 1.21791C8.13747 1.21791 8.06013 1.24994 8.00311 1.30696C7.94609 1.36398 7.91406 1.44132 7.91406 1.52196C7.91406 1.6026 7.94609 1.67994 8.00311 1.73696L8.61212 2.34596C8.64008 2.37469 8.67349 2.39752 8.71042 2.41311C8.74735 2.4287 8.78703 2.43674 8.82712 2.43674C8.8672 2.43674 8.90689 2.4287 8.94382 2.41311C8.98074 2.39752 9.01416 2.37469 9.04211 2.34596L9.65112 1.73696C9.67978 1.70894 9.70254 1.67546 9.71805 1.63849C9.73355 1.60153 9.74149 1.56184 9.74139 1.52175C9.7413 1.48167 9.73318 1.44201 9.7175 1.40512C9.70182 1.36823 9.67891 1.33485 9.65012 1.30696Z" fill="white"/>
</svg>
