<svg width="32" height="32" viewBox="0 0 32 32" fill="none" xmlns="http://www.w3.org/2000/svg">
<path d="M30.4496 15.7466L28.5189 13.6329C28.1767 13.2593 27.7004 13.0367 27.1944 13.0138C26.6884 12.9909 26.1939 13.1696 25.8195 13.5107L22.9951 16.0879L24.9259 18.2016L27.0396 16.2709L30.2634 19.8002C30.8237 19.286 31.1575 18.5709 31.1919 17.8112C31.2263 17.0515 30.9584 16.3091 30.4468 15.7465L30.4496 15.7466ZM16.9151 23.5831C17.0413 23.7228 17.1939 23.8361 17.3642 23.9164C17.5345 23.9967 17.719 24.0424 17.9071 24.0509C18.0952 24.0594 18.2831 24.0305 18.4599 23.9659C18.6367 23.9013 18.799 23.8023 18.9373 23.6746L21.3994 21.4249L19.4691 19.3019L17.007 21.5516C16.8672 21.6788 16.7539 21.8322 16.6736 22.0033C16.5933 22.1743 16.5475 22.3595 16.539 22.5483C16.5305 22.737 16.5593 22.9256 16.6238 23.1032C16.6884 23.2807 16.7873 23.4438 16.9151 23.5831Z" fill="#F54336"/>
<path d="M26.2828 18.2628L25.5751 18.9093L24.8673 19.5558L21.9684 16.3822C21.7137 16.102 21.3581 15.9344 20.9798 15.9164C20.6015 15.8983 20.2316 16.0313 19.9513 16.286C19.6711 16.5407 19.5035 16.8964 19.4855 17.2746C19.4674 17.6529 19.6004 18.0229 19.8551 18.3031L22.754 21.4767L22.0462 22.1232L15.7057 27.9148C15.3317 28.2567 15.1089 28.7331 15.0862 29.2393C15.0635 29.7455 15.2428 30.24 15.5847 30.6139C15.9265 30.9879 16.403 31.2108 16.9091 31.2335C17.4153 31.2562 17.9098 31.0768 18.2838 30.735L27.4443 22.3674C27.619 22.5329 27.8498 22.6262 28.0905 22.6284C28.3311 22.6306 28.5636 22.5416 28.7413 22.3793C28.919 22.217 29.0286 21.9934 29.0481 21.7536C29.0677 21.5137 28.9957 21.2754 28.8466 21.0865L26.2828 18.2628Z" fill="#F54336"/>
<mask id="mask0_168_789" style="mask-type:alpha" maskUnits="userSpaceOnUse" x="0" y="0" width="27" height="28">
<path d="M17 14.5002L24 14.5002L26.5 11.5002L26.5 -2.72364e-08L0 0L2.77505e-08 27.0002L17 27.0002L17 14.5002Z" fill="#D9D9D9"/>
</mask>
<g mask="url(#mask0_168_789)">
<path d="M3.82571 24.6281H4.82571V23.6281V16.3897C4.82571 14.0953 5.73716 11.8949 7.35956 10.2725C8.98195 8.65009 11.1824 7.73863 13.4768 7.73863C15.7712 7.73863 17.9717 8.65009 19.5941 10.2725C21.2165 11.8949 22.1279 14.0953 22.1279 16.3897V23.6281V24.6281H23.1279H23.3343V25.0408H3.61932V24.6281H3.82571ZM5.23848 16.3897V17.3897H6.23848H8.65126H9.65126V16.3897C9.65126 15.3751 10.0543 14.4021 10.7717 13.6847C11.4892 12.9672 12.4622 12.5642 13.4768 12.5642H14.4768V11.5642V9.15141V8.15141H13.4768C11.2919 8.15141 9.19642 9.01937 7.65143 10.5644C6.10645 12.1093 5.23848 14.2048 5.23848 16.3897ZM22.8601 6.71484L23.1519 7.00662L22.008 8.15107L21.7158 7.85912L22.8601 6.71484ZM3.80191 7.00645L4.09369 6.71467L5.23864 7.85908L4.9469 8.15144L3.80191 7.00645ZM13.2704 2.91309H13.6832V4.53225H13.2704V2.91309Z" stroke="#F54336" stroke-width="2"/>
</g>
</svg>
