<svg width="19" height="13" viewBox="0 0 19 13" fill="none" xmlns="http://www.w3.org/2000/svg">
<path d="M18.3 5.96005C18.138 5.73405 14.269 0.425049 9.32799 0.425049C4.38699 0.425049 0.518991 5.73405 0.355991 5.95905C0.280907 6.06408 0.24054 6.18994 0.24054 6.31905C0.24054 6.44815 0.280907 6.57402 0.355991 6.67905C0.517991 6.90505 4.38699 12.2141 9.32799 12.2141C14.269 12.2141 18.138 6.90505 18.3 6.68005C18.3752 6.57508 18.4157 6.44919 18.4157 6.32005C18.4157 6.19091 18.3752 6.06502 18.3 5.96005ZM9.32799 10.9901C5.68799 10.9901 2.53599 7.46705 1.60299 6.31505C2.53499 5.16205 5.68099 1.64105 9.32799 1.64105C12.975 1.64105 16.119 5.16405 17.053 6.31605C16.121 7.47305 12.976 10.9901 9.32799 10.9901Z" fill="#0C3F61"/>
<path d="M9.329 2.66099C8.62042 2.72974 7.94705 3.00275 7.39067 3.44688C6.8343 3.89101 6.41885 4.48714 6.1948 5.16287C5.97074 5.83859 5.94773 6.56484 6.12853 7.2534C6.30933 7.94196 6.68616 8.5632 7.21329 9.04168C7.74042 9.52016 8.39514 9.83529 9.09793 9.94879C9.80073 10.0623 10.5214 9.96927 11.1723 9.68104C11.8233 9.39281 12.3765 8.92176 12.7649 8.32512C13.1532 7.72847 13.36 7.03189 13.36 6.31999C13.3072 5.3015 12.8537 4.34522 12.0986 3.65976C11.3434 2.97429 10.3478 2.61527 9.329 2.66099ZM9.329 8.76098C8.85678 8.71509 8.40805 8.53307 8.0373 8.23704C7.66654 7.94101 7.38972 7.54371 7.24044 7.09337C7.09116 6.64302 7.07584 6.15903 7.19635 5.70015C7.31687 5.24127 7.56802 4.82725 7.91931 4.50837C8.27061 4.1895 8.70694 3.97947 9.17531 3.90382C9.64368 3.82817 10.1239 3.89014 10.5578 4.0822C10.9916 4.27425 11.3603 4.58815 11.6192 4.98575C11.878 5.38335 12.0159 5.84755 12.016 6.32199C11.9803 7.00054 11.6778 7.63746 11.1745 8.09395C10.6711 8.55043 10.0078 8.78948 9.329 8.75898V8.76098Z" fill="#0C3F61"/>
</svg>
