<svg width="14" height="14" viewBox="0 0 14 14" fill="none" xmlns="http://www.w3.org/2000/svg">
<path d="M7 6H6V7H7V6Z" fill="white"/>
<path d="M12.359 1.094H11.7V0H10.609V1.094H3.391V0H2.3V1.094H1.641C1.20603 1.09426 0.788944 1.2671 0.481283 1.57458C0.173622 1.88205 0.00052972 2.29903 0 2.734L0 12.359C0.000264925 12.7941 0.173241 13.2114 0.48093 13.5191C0.78862 13.8268 1.20586 13.9997 1.641 14H7.267C6.88817 13.6871 6.55938 13.3182 6.292 12.906H1.641C1.56917 12.906 1.49804 12.8919 1.43167 12.8644C1.36531 12.8369 1.30501 12.7966 1.25421 12.7458C1.20342 12.695 1.16313 12.6347 1.13564 12.5683C1.10815 12.502 1.094 12.4308 1.094 12.359V5.141H12.906V6.292C13.3182 6.55939 13.6871 6.88818 14 7.267V2.734C13.9995 2.29903 13.8264 1.88205 13.5187 1.57458C13.2111 1.2671 12.794 1.09426 12.359 1.094ZM12.906 4.047H1.094V2.734C1.094 2.58893 1.15163 2.4498 1.25421 2.34721C1.3568 2.24463 1.49593 2.187 1.641 2.187H2.3V3.281H3.391V2.188H10.61V3.281H11.7V2.188H12.356C12.5011 2.188 12.6402 2.24563 12.7428 2.34821C12.8454 2.45079 12.903 2.58993 12.903 2.735L12.906 4.047Z" fill="white"/>
<path d="M10.3079 6.61694C9.57793 6.61694 8.86432 6.83341 8.25734 7.23898C7.65036 7.64456 7.17727 8.22102 6.8979 8.89546C6.61854 9.5699 6.54545 10.312 6.68787 11.028C6.83029 11.744 7.18182 12.4017 7.69801 12.9179C8.21421 13.4341 8.87188 13.7856 9.58786 13.928C10.3038 14.0704 11.046 13.9974 11.7204 13.718C12.3949 13.4386 12.9713 12.9655 13.3769 12.3586C13.7825 11.7516 13.9989 11.0379 13.9989 10.3079C13.9966 9.32975 13.6069 8.39232 12.9153 7.70064C12.2236 7.00896 11.2861 6.61932 10.3079 6.61694ZM10.3079 12.9059C9.79371 12.9059 9.29103 12.7534 8.86347 12.4678C8.4359 12.1821 8.10264 11.776 7.90585 11.3009C7.70907 10.8258 7.65758 10.3031 7.7579 9.79871C7.85823 9.29436 8.10585 8.83108 8.46947 8.46747C8.83308 8.10385 9.29636 7.85623 9.80071 7.75591C10.3051 7.65558 10.8278 7.70707 11.3029 7.90385C11.778 8.10064 12.1841 8.4339 12.4698 8.86147C12.7554 9.28903 12.9079 9.79171 12.9079 10.3059C12.9079 10.9955 12.634 11.6568 12.1464 12.1444C11.6588 12.632 10.9975 12.9059 10.3079 12.9059Z" fill="white"/>
<path d="M10.8279 8.47705H9.73389V10.856H11.7569V9.76205H10.8269L10.8279 8.47705Z" fill="white"/>
<path d="M3 8H2V9H3V8Z" fill="white"/>
<path d="M3 10H2V11H3V10Z" fill="white"/>
<path d="M5 8H4V9H5V8Z" fill="white"/>
<path d="M5 10H4V11H5V10Z" fill="white"/>
<path d="M3 6H2V7H3V6Z" fill="white"/>
<path d="M5 6H4V7H5V6Z" fill="white"/>
</svg>
