<svg width="17" height="17" viewBox="0 0 17 17" fill="none" xmlns="http://www.w3.org/2000/svg">
<path d="M11.322 15.0076L13.9791 17V15.0076H17V6.0095H10.9905V0H0V8.9981H3.0209V10.9905L5.678 8.9981H6.018V15.0076H11.322ZM16.0038 14.0114H12.9829V15.0076L11.6552 14.0114H7.0057V7.0057H16.0038V14.0114ZM5.3465 8.0019L4.0188 8.9981V8.0019H0.9962V0.9962H9.9943V6.0095H7.82L5.5114 1.4093L3.0736 6.29L3.9644 6.7354L4.5747 5.5165H6.4447L6.6929 6.0146H6.0129V8.0019H5.3465ZM5.95 4.5152H5.0728L5.5114 3.6363L5.95 4.5152Z" fill="#8E7648"/>
<path d="M10.5061 11.3018C10.098 11.7006 9.5831 11.9728 9.02368 12.0855V13.2279C9.88407 13.1134 10.6847 12.7247 11.3068 12.1195C11.9289 12.7247 12.7295 13.1134 13.5899 13.2279V12.0855C13.0305 11.9728 12.5156 11.7006 12.1075 11.3018C12.4859 10.865 12.7696 10.3544 12.9405 9.80237H14.1611V8.65997H11.878V7.51758H10.7356V8.65997H8.45248V9.80237H9.67306C9.84397 10.3544 10.1277 10.865 10.5061 11.3018ZM11.3068 10.4756C11.1408 10.2657 10.9994 10.0375 10.8852 9.79557H11.7352C11.6188 10.0379 11.4751 10.266 11.3068 10.4756Z" fill="#8E7648"/>
</svg>
