<svg width="125" height="45" viewBox="0 0 125 45" fill="none" xmlns="http://www.w3.org/2000/svg">
<path d="M71 10.4446C70.9992 10.6359 70.8792 10.8192 70.6663 10.9545C70.4534 11.0898 70.165 11.166 69.8639 11.1666H54.4777L58.794 14.2446C58.8962 14.3153 58.9752 14.3983 59.0265 14.4886C59.0778 14.579 59.1002 14.6749 59.0926 14.7709C59.0849 14.8668 59.0473 14.9608 58.9819 15.0474C58.9166 15.134 58.8247 15.2115 58.7118 15.2753C58.5988 15.3391 58.467 15.388 58.324 15.4191C58.181 15.4503 58.0297 15.463 57.8789 15.4566C57.7281 15.4502 57.5808 15.4248 57.4456 15.3819C57.3104 15.3389 57.19 15.2793 57.0914 15.2066L51.2818 11.0576C51.1068 10.9302 51.0073 10.7679 51.0004 10.5989C50.9935 10.4298 51.0797 10.2645 51.2441 10.1316C51.343 10.0007 51.5014 9.89164 51.6988 9.81855L57.1292 6.22355C57.3378 6.08485 57.6246 6.0045 57.9265 6.00018C58.2284 5.99587 58.5206 6.06795 58.7389 6.20055C58.9572 6.33316 59.0836 6.51544 59.0904 6.70729C59.0972 6.89914 58.9838 7.08484 58.7751 7.22355L54.9907 9.72355H69.8639C70.1647 9.72408 70.4529 9.80018 70.6658 9.93525C70.8786 10.0703 70.9988 10.2534 71 10.4446Z" fill="#8E7648" stroke="#8E7648" stroke-width="2"/>
<path d="M54 26.4446C54.0009 26.6359 54.1329 26.8192 54.367 26.9545C54.6012 27.0898 54.9185 27.166 55.2497 27.1666H72.1745L67.4266 30.2446C67.3142 30.3153 67.2272 30.3983 67.1708 30.4886C67.1145 30.579 67.0898 30.6749 67.0982 30.7709C67.1066 30.8668 67.148 30.9608 67.2199 31.0474C67.2918 31.134 67.3928 31.2115 67.5171 31.2753C67.6413 31.3391 67.7863 31.388 67.9436 31.4191C68.1009 31.4503 68.2673 31.463 68.4332 31.4566C68.5991 31.4502 68.7611 31.4248 68.9098 31.3819C69.0585 31.3389 69.191 31.2793 69.2995 31.2066L75.69 27.0576C75.8825 26.9302 75.992 26.7679 75.9996 26.5989C76.0072 26.4298 75.9124 26.2645 75.7315 26.1316C75.6227 26.0007 75.4485 25.8916 75.2313 25.8186L69.2579 22.2236C69.0284 22.0848 68.7129 22.0045 68.3808 22.0002C68.0487 21.9959 67.7273 22.0679 67.4872 22.2006C67.2471 22.3332 67.108 22.5154 67.1006 22.7073C67.0931 22.8991 67.2179 23.0848 67.4474 23.2236L71.6102 25.7236H55.2497C54.9188 25.7241 54.6018 25.8002 54.3677 25.9353C54.1335 26.0703 54.0014 26.2534 54 26.4446Z" fill="#8E7648" stroke="#8E7648" stroke-width="2"/>
<path d="M29.97 39.726L37.0035 45V39.726H45V15.9075H29.0925V0H0V23.8185H7.9965V29.0925L15.03 23.8185H15.93V39.726H29.97ZM42.363 37.089H34.3665V39.726L30.852 37.089H18.5445V18.5445H42.363V37.089ZM14.1525 21.1815L10.638 23.8185V21.1815H2.637V2.637H26.4555V15.9075H20.7L14.589 3.7305L8.136 16.65L10.494 17.829L12.1095 14.6025H17.0595L17.7165 15.921H15.9165V21.1815H14.1525ZM15.75 11.952H13.428L14.589 9.6255L15.75 11.952Z" fill="#8E7648"/>
<path d="M27.8103 29.9164C26.7299 30.9721 25.3671 31.6926 23.8863 31.9909V35.0149C26.1638 34.7119 28.2829 33.6831 29.9297 32.0809C31.5765 33.6831 33.6958 34.7119 35.9733 35.0149V31.9909C34.4925 31.6926 33.1296 30.9721 32.0492 29.9164C33.0509 28.7602 33.8018 27.4087 34.2543 25.9474H37.4853V22.9234H31.4418V19.8994H28.4177V22.9234H22.3743V25.9474H25.6052C26.0576 27.4087 26.8085 28.7603 27.8103 29.9164ZM29.9297 27.7294C29.4905 27.1738 29.1162 26.5699 28.8138 25.9294H31.0638C30.7558 26.5708 30.3752 27.1747 29.9297 27.7294Z" fill="#8E7648"/>
<path d="M109.97 39.726L117.003 45V39.726H125V15.9075H109.093V0H80V23.8185H87.9965V29.0925L95.03 23.8185H95.93V39.726H109.97ZM122.363 37.089H114.367V39.726L110.852 37.089H98.5445V18.5445H122.363V37.089ZM94.1525 21.1815L90.638 23.8185V21.1815H82.637V2.637H106.456V15.9075H100.7L94.589 3.7305L88.136 16.65L90.494 17.829L92.1095 14.6025H97.0595L97.7165 15.921H95.9165V21.1815H94.1525ZM95.75 11.952H93.428L94.589 9.6255L95.75 11.952Z" fill="#8E7648"/>
<path d="M112.208 33.516C111.583 33.516 110.971 33.4413 110.374 33.292C109.786 33.1427 109.254 32.9047 108.778 32.578C108.302 32.2607 107.924 31.85 107.644 31.346C107.364 30.842 107.224 30.2353 107.224 29.526C107.224 28.7607 107.378 28.0607 107.686 27.426C107.994 26.782 108.428 26.2127 108.988 25.718C109.548 25.2233 110.211 24.8127 110.976 24.486C111.751 24.15 112.595 23.912 113.51 23.772L113.972 25.62C113.151 25.7693 112.437 25.9653 111.83 26.208C111.233 26.4507 110.738 26.7353 110.346 27.062C109.954 27.3887 109.66 27.7387 109.464 28.112C109.277 28.4947 109.184 28.896 109.184 29.316C109.184 29.652 109.245 29.946 109.366 30.198C109.497 30.45 109.669 30.66 109.884 30.828C110.099 31.0053 110.337 31.1453 110.598 31.248C110.859 31.36 111.13 31.4393 111.41 31.486C111.69 31.5327 111.956 31.556 112.208 31.556C112.852 31.556 113.449 31.4953 114 31.374C114.56 31.2527 115.05 31.1033 115.47 30.926L116.03 32.732C115.806 32.844 115.489 32.9607 115.078 33.082C114.677 33.2033 114.224 33.306 113.72 33.39C113.225 33.474 112.721 33.516 112.208 33.516ZM109.422 25.76C109.095 25.6293 108.792 25.4427 108.512 25.2C108.241 24.9573 108.022 24.6587 107.854 24.304C107.695 23.94 107.616 23.5247 107.616 23.058C107.616 22.47 107.77 21.9613 108.078 21.532C108.386 21.1027 108.797 20.7713 109.31 20.538C109.823 20.3047 110.383 20.188 110.99 20.188C111.289 20.188 111.564 20.2067 111.816 20.244C112.077 20.2813 112.343 20.3373 112.614 20.412L112.306 22.274C112.11 22.2273 111.909 22.19 111.704 22.162C111.499 22.134 111.317 22.12 111.158 22.12C110.831 22.12 110.547 22.1667 110.304 22.26C110.071 22.3533 109.889 22.4887 109.758 22.666C109.637 22.834 109.576 23.0347 109.576 23.268C109.576 23.4547 109.632 23.632 109.744 23.8C109.865 23.968 110.019 24.1173 110.206 24.248C110.393 24.3693 110.598 24.472 110.822 24.556C111.046 24.6307 111.265 24.6727 111.48 24.682L109.422 25.76Z" fill="#8E7648"/>
</svg>
