<svg width="18" height="19" viewBox="0 0 18 19" fill="none" xmlns="http://www.w3.org/2000/svg">
<path d="M7.51142 13.5089V11.3489C7.46876 11.1225 7.34837 10.9182 7.17106 10.7712C6.99375 10.6242 6.77065 10.5437 6.54033 10.5437C6.31 10.5437 6.0869 10.6242 5.90959 10.7712C5.73228 10.9182 5.61189 11.1225 5.56923 11.3489V13.5089C5.33731 13.6379 5.153 13.8381 5.04346 14.0799C4.93392 14.3216 4.90495 14.5922 4.96083 14.8517C5.04292 15.1189 5.19853 15.3577 5.40987 15.5407C5.62122 15.7237 5.87978 15.8436 6.15602 15.8867C6.28279 15.913 6.41176 15.9275 6.54122 15.9298C6.85921 15.9443 7.17442 15.8648 7.44748 15.7012C7.72055 15.5377 7.93937 15.2973 8.07662 15.0101C8.17928 14.7337 8.17861 14.4296 8.07475 14.1538C7.97089 13.8779 7.77082 13.6489 7.51142 13.5089ZM7.15142 15.2117C7.00345 15.3113 6.834 15.3745 6.65693 15.396C6.47986 15.4176 6.3002 15.397 6.13263 15.3359C5.97686 15.2885 5.83864 15.196 5.73546 15.0701C5.63229 14.9442 5.5688 14.7905 5.55303 14.6285C5.5527 14.4673 5.60143 14.3099 5.69275 14.1771C5.78406 14.0443 5.91363 13.9424 6.06423 13.8851C6.11072 13.8655 6.15067 13.8331 6.17937 13.7917C6.20807 13.7502 6.22433 13.7014 6.22623 13.6511V11.3579C6.24012 11.2821 6.28015 11.2135 6.33935 11.1642C6.39855 11.1149 6.47316 11.0879 6.55022 11.0879C6.62728 11.0879 6.7019 11.1149 6.7611 11.1642C6.8203 11.2135 6.86033 11.2821 6.87422 11.3579V13.6565C6.87612 13.7068 6.89238 13.7556 6.92108 13.7971C6.94978 13.8385 6.98973 13.8709 7.03622 13.8905C7.16406 13.9463 7.27521 14.0344 7.35882 14.1461C7.44243 14.2578 7.49563 14.3893 7.51322 14.5277C7.52117 14.6641 7.49187 14.8002 7.42846 14.9213C7.36505 15.0424 7.26991 15.144 7.15322 15.2152L7.15142 15.2117Z" fill="#8E7648"/>
<path d="M17.7696 10.8234L16.7922 10.611C16.3063 10.5024 15.8471 10.2975 15.4418 10.0085C15.0365 9.7194 14.6933 9.35199 14.4324 8.92798C14.4059 8.8844 14.3686 8.84837 14.3242 8.82337C14.2797 8.79837 14.2296 8.78524 14.1786 8.78524C14.1276 8.78524 14.0774 8.79837 14.033 8.82337C13.9885 8.84837 13.9513 8.8844 13.9248 8.92798C13.5564 9.52539 13.0249 10.005 12.393 10.3104V9.08098C12.3918 8.79691 12.3073 8.51943 12.1498 8.28296C11.9924 8.0465 11.769 7.86145 11.5074 7.75078V5.01659C11.5074 3.68611 10.9788 2.41012 10.0381 1.46932C9.09726 0.528532 7.82127 0 6.49079 0C5.1603 0 3.88432 0.528532 2.94352 1.46932C2.00273 2.41012 1.4742 3.68611 1.4742 5.01659V7.75078C1.2129 7.86173 0.98989 8.04689 0.832794 8.28333C0.675698 8.51977 0.59142 8.79711 0.590399 9.08098V9.95218H0.295199C0.217694 9.9517 0.143146 9.9819 0.0878366 10.0362C0.0325271 10.0905 0.000949515 10.1645 0 10.242V15.462C0.000949515 15.5395 0.0325271 15.6134 0.0878366 15.6677C0.143146 15.722 0.217694 15.7522 0.295199 15.7518H0.590399V16.623C0.592046 16.8151 0.631532 17.0051 0.706601 17.182C0.781669 17.3589 0.890851 17.5193 1.02791 17.6541C1.16497 17.7888 1.32723 17.8952 1.50541 17.9672C1.68359 18.0392 1.87422 18.0754 2.0664 18.0738H10.9188C11.111 18.0754 11.3016 18.0392 11.4798 17.9672C11.6579 17.8952 11.8202 17.7888 11.9573 17.6541C12.0943 17.5193 12.2035 17.3589 12.2786 17.182C12.3536 17.0051 12.3931 16.8151 12.3948 16.623V16.5852C12.8001 17.0532 13.2552 17.4757 13.752 17.8452L13.9878 18.0252C14.0396 18.0643 14.1028 18.0855 14.1678 18.0855C14.2327 18.0855 14.2959 18.0643 14.3478 18.0252L14.5836 17.8452C15.6379 17.0665 16.4957 16.0524 17.0889 14.8837C17.682 13.7149 17.994 12.4238 18 11.1132C18.001 11.0457 17.9787 10.9799 17.9367 10.927C17.8946 10.8742 17.8356 10.8375 17.7696 10.8234ZM2.0664 5.01659C2.0664 3.84269 2.53273 2.71687 3.3628 1.8868C4.19287 1.05673 5.31869 0.590399 6.49259 0.590399C7.66648 0.590399 8.7923 1.05673 9.62238 1.8868C10.4524 2.71687 10.9188 3.84269 10.9188 5.01659V7.63018H9.73798V5.01659C9.73798 4.15562 9.39596 3.32991 8.78716 2.72111C8.17836 2.11232 7.35266 1.7703 6.49169 1.7703C5.63072 1.7703 4.80501 2.11232 4.19621 2.72111C3.58741 3.32991 3.24539 4.15562 3.24539 5.01659V7.63018H2.0664V5.01659ZM9.14758 7.63018H3.83579V5.01659C3.85382 4.32417 4.14155 3.66617 4.63766 3.18281C5.13377 2.69945 5.79904 2.42894 6.49169 2.42894C7.18434 2.42894 7.8496 2.69945 8.34572 3.18281C8.84183 3.66617 9.12955 4.32417 9.14758 5.01659V7.63018ZM3.54059 10.5318V11.6928H0.590399V10.5318H3.54059ZM0.590399 15.1776V14.0166H3.54059V15.1776H0.590399ZM3.54059 13.4352H0.590399V12.2742H3.54059V13.4352ZM11.8026 16.6284C11.8016 16.7437 11.778 16.8578 11.733 16.964C11.6879 17.0702 11.6225 17.1665 11.5402 17.2474C11.458 17.3283 11.3606 17.3922 11.2537 17.4355C11.1467 17.4787 11.0323 17.5005 10.917 17.4996H2.0664C1.95104 17.5005 1.83663 17.4787 1.72969 17.4355C1.62276 17.3922 1.52539 17.3283 1.44316 17.2474C1.36092 17.1665 1.29542 17.0702 1.25041 16.964C1.20539 16.8578 1.18174 16.7437 1.1808 16.6284V15.759H3.83579C3.87507 15.7604 3.91424 15.754 3.95097 15.74C3.9877 15.726 4.02125 15.7048 4.04963 15.6776C4.078 15.6504 4.10062 15.6178 4.11614 15.5816C4.13167 15.5455 4.13978 15.5067 4.13999 15.4674V10.2474C4.13904 10.1699 4.10746 10.0959 4.05216 10.0416C3.99685 9.9873 3.9223 9.9571 3.84479 9.95758H1.1808V9.08098C1.18174 8.96563 1.20539 8.85159 1.25041 8.74538C1.29542 8.63916 1.36092 8.54286 1.44316 8.46196C1.52539 8.38106 1.62276 8.31715 1.72969 8.27388C1.83663 8.23061 1.95104 8.20883 2.0664 8.20978H10.9188C11.1514 8.20834 11.3752 8.29927 11.5409 8.4626C11.7065 8.62593 11.8007 8.84833 11.8026 9.08098V10.5318C11.7144 10.5588 11.6226 10.584 11.5344 10.6038L10.557 10.8216C10.491 10.8357 10.4319 10.8724 10.3899 10.9252C10.3479 10.9781 10.3255 11.0439 10.3266 11.1114C10.3328 12.7955 10.8472 14.4386 11.8026 15.8256V16.6284ZM14.2218 17.3826L14.1624 17.4258L14.103 17.3826C13.1511 16.6812 12.3702 15.7736 11.8185 14.7279C11.2668 13.6821 10.9586 12.5252 10.917 11.3436L11.6568 11.1816C12.6524 10.9661 13.5398 10.4057 14.1624 9.59938C14.784 10.405 15.6701 10.9653 16.6644 11.1816L17.4078 11.3436C17.3662 12.5257 17.0579 13.683 16.5059 14.7291C15.9538 15.7752 15.1724 16.6829 14.22 17.3844L14.2218 17.3826Z" fill="#8E7648"/>
<path d="M15.7032 12.0168L15.1272 11.7756L14.9076 12.1356C14.4058 11.8857 13.8367 11.8049 13.2851 11.9051C12.7336 12.0054 12.2293 12.2813 11.8476 12.6918C11.6862 12.8819 11.5688 13.1052 11.5035 13.3458C11.4382 13.5864 11.4267 13.8384 11.4698 14.084C11.5129 14.3295 11.6096 14.5626 11.753 14.7665C11.8964 14.9705 12.0829 15.1403 12.2994 15.264C12.772 15.5684 13.3293 15.714 13.8903 15.6797C14.4514 15.6453 14.9868 15.4329 15.4188 15.0732C15.6112 14.9157 15.7663 14.7174 15.8728 14.4927C15.9793 14.2679 16.0345 14.0223 16.0345 13.7736C16.0345 13.5249 15.9793 13.2793 15.8728 13.0546C15.7663 12.8298 15.6112 12.6316 15.4188 12.474L15.7032 12.0168ZM15.4152 13.779C15.3967 14.1044 15.2669 14.4136 15.0477 14.6547C14.8285 14.8959 14.5331 15.0544 14.211 15.1038C13.875 15.1889 13.5216 15.1744 13.1937 15.0623C12.8658 14.9501 12.5776 14.745 12.3642 14.472C12.1849 14.2172 12.1126 13.9023 12.1627 13.5947C12.2129 13.2872 12.3815 13.0116 12.6324 12.8268C12.9113 12.6129 13.2443 12.4808 13.594 12.4455C13.9437 12.4103 14.2964 12.4731 14.6124 12.627L13.7394 14.0796L13.0914 13.3596L12.573 13.6818L13.5432 14.7618C13.5766 14.7968 13.6168 14.8244 13.6615 14.843C13.7061 14.8616 13.7541 14.8707 13.8024 14.8698H13.8312C13.883 14.8674 13.9334 14.8527 13.9785 14.827C14.0235 14.8014 14.0618 14.7655 14.0904 14.7222L15.1164 13.0176C15.3026 13.228 15.4073 13.4981 15.4116 13.779H15.4152Z" fill="#8E7648"/>
</svg>
