<svg width="12" height="16" viewBox="0 0 12 16" fill="none" xmlns="http://www.w3.org/2000/svg">
<path d="M5.775 0C4.24395 0.00185246 2.77613 0.610883 1.6935 1.6935C0.610883 2.77613 0.00185246 4.24394 0 5.775C0 9.727 5.168 15.528 5.388 15.775C5.43677 15.8293 5.49643 15.8728 5.56311 15.9026C5.62979 15.9323 5.70199 15.9477 5.775 15.9477C5.84802 15.9477 5.92021 15.9323 5.98689 15.9026C6.05357 15.8728 6.11323 15.8293 6.162 15.775C6.382 15.53 11.55 9.728 11.55 5.775C11.5482 4.24394 10.9391 2.77613 9.8565 1.6935C8.77388 0.610883 7.30606 0.00185246 5.775 0ZM5.775 8.681C5.20021 8.6812 4.63826 8.51093 4.16024 8.19174C3.68222 7.87254 3.30959 7.41876 3.08949 6.88777C2.86939 6.35679 2.81171 5.77246 2.92372 5.20868C3.03574 4.64491 3.31242 4.12701 3.7188 3.7205C4.12517 3.31399 4.64297 3.03712 5.2067 2.92491C5.77044 2.8127 6.35479 2.87019 6.88585 3.09011C7.41691 3.31003 7.87083 3.6825 8.19019 4.16041C8.50955 4.63832 8.68 5.2002 8.68 5.775C8.67921 6.5453 8.37292 7.28384 7.82833 7.82862C7.28374 8.3734 6.5453 8.67994 5.775 8.681Z" fill="white"/>
</svg>
