<svg width="18" height="14" viewBox="0 0 18 14" fill="none" xmlns="http://www.w3.org/2000/svg">
<path d="M16.07 0.115967H1.61801C1.38923 0.117078 1.16365 0.169714 0.958008 0.269966L8.81001 8.12196L10.57 6.43097L16.73 0.270966C16.5244 0.170367 16.2989 0.117389 16.07 0.115967Z" fill="#0C3F61"/>
<path d="M17.456 0.996948L11.656 6.79695L17.456 12.597C17.5562 12.3913 17.6089 12.1657 17.61 11.937V1.65695C17.6089 1.42818 17.5563 1.20259 17.456 0.996948Z" fill="#0C3F61"/>
<path d="M0.231026 0.996948C0.130774 1.20259 0.0781373 1.42817 0.0770264 1.65694L0.0770264 11.9309C0.0781373 12.1597 0.130774 12.3853 0.231026 12.591L6.03103 6.79095L0.231026 0.996948Z" fill="#0C3F61"/>
<path d="M10.9331 7.51999L9.17308 9.211C9.12543 9.25871 9.06885 9.29656 9.00656 9.32239C8.94427 9.34821 8.87751 9.36151 8.81008 9.36151C8.74265 9.36151 8.67588 9.34821 8.6136 9.32239C8.55131 9.29656 8.49472 9.25871 8.44708 9.211L6.75508 7.51898L0.955078 13.319C1.16064 13.4196 1.38623 13.4726 1.61508 13.474H16.0701C16.2988 13.4729 16.5244 13.4202 16.7301 13.32L10.9331 7.51999Z" fill="#0C3F61"/>
</svg>
