<svg width="14" height="11" viewBox="0 0 14 11" fill="none" xmlns="http://www.w3.org/2000/svg">
<path d="M12.677 1.00431e-07H1.221C1.03971 0.000874788 0.860957 0.0425752 0.697998 0.122002L6.921 6.345L8.316 5L13.198 0.118C13.0353 0.0402473 12.8573 -7.34455e-05 12.677 1.00431e-07Z" fill="white"/>
<path d="M13.775 0.697998L9.17999 5.292L13.774 9.886C13.8534 9.72304 13.8951 9.54428 13.896 9.363V1.221C13.8954 1.03979 13.8541 0.861038 13.775 0.697998Z" fill="white"/>
<path d="M0.122 0.697998C0.0425734 0.860957 0.000874687 1.03972 0 1.221L0 9.363C0.000874687 9.54428 0.0425734 9.72303 0.122 9.88599L4.717 5.292L0.122 0.697998Z" fill="white"/>
<path d="M8.60399 5.86792L7.20899 7.20892C7.17119 7.24678 7.1263 7.27681 7.07688 7.2973C7.02746 7.31779 6.97449 7.32834 6.92099 7.32834C6.86749 7.32834 6.81452 7.31779 6.7651 7.2973C6.71569 7.27681 6.67079 7.24678 6.63299 7.20892L5.29199 5.86792L0.696991 10.4619C0.859869 10.5417 1.03863 10.5837 1.21999 10.5849H12.675C12.8563 10.5841 13.035 10.5423 13.198 10.4629L8.60399 5.86792Z" fill="white"/>
</svg>
