<svg width="15" height="14" viewBox="0 0 15 14" fill="none" xmlns="http://www.w3.org/2000/svg">
<path d="M11.017 7.666L10.084 8.6L3.63599 2.152L4.13599 1.652L2.07599 0L0.903992 1.172L2.55999 3.227L3.05999 2.727L9.50399 9.18L8.56999 10.114L9.90399 11.445L12.351 8.998L11.017 7.666Z" fill="#0C3F61"/>
<path d="M12.929 9.58105L10.482 12.0281L11.95 13.4961C12.2745 13.8206 12.7146 14.0029 13.1735 14.0029C13.6324 14.0029 14.0725 13.8206 14.397 13.4961C14.7215 13.1716 14.9038 12.7315 14.9038 12.2726C14.9038 11.8137 14.7215 11.3736 14.397 11.0491L12.929 9.58105Z" fill="#0C3F61"/>
<path d="M7.99002 8.82994L6.07902 6.91895L4.67902 8.31894C4.05805 8.12528 3.3901 8.14533 2.78186 8.37589C2.17363 8.60644 1.66022 9.03418 1.32364 9.59079C0.987069 10.1474 0.846757 10.8008 0.925125 11.4465C1.00349 12.0922 1.29601 12.693 1.75596 13.153C2.21591 13.6129 2.81674 13.9055 3.46246 13.9838C4.10819 14.0622 4.76155 13.9219 5.31816 13.5853C5.87477 13.2488 6.30253 12.7353 6.53308 12.1271C6.76363 11.5189 6.78368 10.8509 6.59002 10.2299L7.99002 8.82994ZM4.47902 11.7609C4.3474 11.8925 4.17973 11.9821 3.9972 12.0184C3.81468 12.0547 3.62549 12.036 3.45356 11.9648C3.28164 11.8936 3.13469 11.7729 3.03131 11.6182C2.92792 11.4635 2.87274 11.2815 2.87274 11.0954C2.87274 10.9093 2.92792 10.7274 3.03131 10.5727C3.13469 10.418 3.28164 10.2973 3.45356 10.2261C3.62549 10.1549 3.81468 10.1362 3.9972 10.1725C4.17973 10.2088 4.3474 10.2984 4.47902 10.4299C4.65434 10.6062 4.75275 10.8448 4.75275 11.0934C4.75275 11.3421 4.65434 11.5806 4.47902 11.7569V11.7609Z" fill="#0C3F61"/>
<path d="M14.713 1.75495L14.484 1.17095L13.017 2.63895L12.424 2.47995L12.265 1.88695L13.733 0.419952L13.145 0.190952C12.6661 0.00335237 12.1444 -0.0469363 11.6386 0.0457413C11.1327 0.138419 10.6628 0.370387 10.2815 0.715559C9.90031 1.06073 9.62295 1.50542 9.48064 1.99961C9.33832 2.4938 9.33671 3.01789 9.47597 3.51295L7.81396 5.17495L9.72496 7.08595L11.3869 5.42395C11.882 5.56321 12.4061 5.56159 12.9003 5.41928C13.3945 5.27696 13.8392 4.9996 14.1843 4.61837C14.5295 4.23714 14.7615 3.76718 14.8542 3.26132C14.9468 2.75547 14.8966 2.23379 14.709 1.75495H14.713Z" fill="#0C3F61"/>
</svg>
