<svg width="14" height="14" viewBox="0 0 14 14" fill="none" xmlns="http://www.w3.org/2000/svg">
<path d="M10.113 7.666L9.18 8.6L2.732 2.152L3.232 1.652L1.172 0L0 1.172L1.656 3.227L2.156 2.727L8.6 9.18L7.666 10.114L9 11.445L11.447 8.998L10.113 7.666Z" fill="white"/>
<path d="M12.0249 9.58093L9.57788 12.028L11.0459 13.4959C11.3704 13.8204 11.8105 14.0027 12.2694 14.0027C12.7283 14.0027 13.1684 13.8204 13.4929 13.4959C13.8174 13.1714 13.9997 12.7313 13.9997 12.2724C13.9997 11.8135 13.8174 11.3734 13.4929 11.049L12.0249 9.58093Z" fill="white"/>
<path d="M7.08609 8.83006L5.17509 6.91907L3.77509 8.31906C3.15412 8.1254 2.48617 8.14546 1.87793 8.37601C1.2697 8.60656 0.756285 9.0343 0.419712 9.59091C0.083138 10.1475 -0.0571732 10.8009 0.0211939 11.4466C0.099561 12.0923 0.392084 12.6932 0.852031 13.1531C1.31198 13.6131 1.91281 13.9056 2.55853 13.9839C3.20426 14.0623 3.85761 13.922 4.41423 13.5854C4.97084 13.2489 5.3986 12.7355 5.62915 12.1272C5.8597 11.519 5.87975 10.851 5.68609 10.2301L7.08609 8.83006ZM3.57509 11.761C3.44347 11.8926 3.2758 11.9822 3.09327 12.0185C2.91075 12.0548 2.72156 12.0361 2.54963 11.9649C2.37771 11.8937 2.23076 11.7731 2.12738 11.6183C2.02399 11.4636 1.96881 11.2816 1.96881 11.0956C1.96881 10.9095 2.02399 10.7276 2.12738 10.5728C2.23076 10.4181 2.37771 10.2975 2.54963 10.2262C2.72156 10.155 2.91075 10.1363 3.09327 10.1726C3.2758 10.2089 3.44347 10.2985 3.57509 10.4301C3.75041 10.6064 3.84882 10.8449 3.84882 11.0936C3.84882 11.3422 3.75041 11.5807 3.57509 11.757V11.761Z" fill="white"/>
<path d="M13.8089 1.75495L13.5799 1.17095L12.1129 2.63895L11.5199 2.47995L11.3609 1.88695L12.8289 0.419952L12.2409 0.190952C11.7621 0.00335237 11.2404 -0.0469363 10.7345 0.0457413C10.2287 0.138419 9.75871 0.370387 9.37749 0.715559C8.99626 1.06073 8.7189 1.50542 8.57658 1.99961C8.43427 2.4938 8.43265 3.01789 8.57191 3.51295L6.90991 5.17495L8.82091 7.08595L10.4829 5.42395C10.978 5.56321 11.5021 5.56159 11.9963 5.41928C12.4905 5.27696 12.9351 4.9996 13.2803 4.61837C13.6255 4.23714 13.8574 3.76718 13.9501 3.26132C14.0428 2.75547 13.9925 2.23379 13.8049 1.75495H13.8089Z" fill="white"/>
</svg>
