<svg width="29" height="27" viewBox="0 0 29 27" fill="none" xmlns="http://www.w3.org/2000/svg">
<path d="M28.0168 21.4021C27.7545 21.4019 27.5029 21.298 27.3168 21.1131C27.2701 21.0672 27.2282 21.0166 27.1918 20.9621C27.1557 20.9093 27.1271 20.8518 27.1068 20.7911C27.0803 20.7322 27.0605 20.6705 27.0478 20.6071C27.0344 20.5447 27.0277 20.481 27.0278 20.4171C27.028 20.3532 27.0347 20.2896 27.0478 20.2271C27.0605 20.1637 27.0803 20.102 27.1068 20.0431C27.1285 19.983 27.157 19.9256 27.1918 19.8721C27.2299 19.8189 27.2717 19.7684 27.3168 19.7211C27.431 19.6072 27.5714 19.523 27.7258 19.4761C27.8801 19.4292 28.0436 19.421 28.2018 19.4521C28.2652 19.4648 28.3269 19.4846 28.3858 19.5111C28.4459 19.5327 28.5033 19.5613 28.5568 19.5961C28.6651 19.6695 28.7584 19.7628 28.8318 19.8711C28.8667 19.9246 28.8952 19.982 28.9168 20.0421C28.9434 20.101 28.9632 20.1627 28.9758 20.2261C28.989 20.2886 28.9957 20.3522 28.9958 20.4161C28.996 20.48 28.9893 20.5437 28.9758 20.6061C28.9632 20.6695 28.9434 20.7312 28.9168 20.7901C28.8966 20.8508 28.8679 20.9083 28.8318 20.9611C28.7955 21.0156 28.7536 21.0662 28.7068 21.1121C28.6595 21.1573 28.6091 21.199 28.5558 21.2371C28.501 21.2717 28.4439 21.3024 28.3848 21.3291C28.3247 21.3503 28.2632 21.3677 28.2008 21.3811C28.1404 21.3945 28.0787 21.4015 28.0168 21.4021Z" fill="white"/>
<path d="M28.0159 26.466C27.8582 26.466 27.7028 26.4279 27.5629 26.355L20.2059 22.53H1.7799C1.51893 22.53 1.26864 22.4263 1.08411 22.2418C0.89957 22.0573 0.795898 21.807 0.795898 21.546V1.86901C0.795898 1.60804 0.89957 1.35775 1.08411 1.17322C1.26864 0.988681 1.51893 0.88501 1.7799 0.88501H28.0159C28.2762 0.886068 28.5254 0.990206 28.7091 1.17463C28.8928 1.35905 28.9959 1.60873 28.9959 1.86901V16.569C28.9959 16.83 28.8922 17.0803 28.7077 17.2648C28.5232 17.4493 28.2729 17.553 28.0119 17.553C27.7509 17.553 27.5006 17.4493 27.3161 17.2648C27.1316 17.0803 27.0279 16.83 27.0279 16.569V2.85301H2.7639V20.563H20.4469C20.6049 20.563 20.7607 20.6011 20.9009 20.674L28.4699 24.609C28.6654 24.7107 28.8211 24.875 28.9121 25.0756C29.003 25.2763 29.0241 25.5017 28.9717 25.7157C28.9194 25.9297 28.7968 26.12 28.6235 26.256C28.4502 26.3921 28.2362 26.466 28.0159 26.466Z" fill="white"/>
<path d="M8.33898 13.3481C8.01461 13.3481 7.69754 13.2519 7.42784 13.0717C7.15814 12.8915 6.94794 12.6354 6.82381 12.3357C6.69969 12.036 6.66721 11.7063 6.73049 11.3882C6.79377 11.07 6.94996 10.7778 7.17932 10.5485C7.40868 10.3191 7.7009 10.1629 8.01903 10.0996C8.33716 10.0363 8.66691 10.0688 8.96658 10.193C9.26625 10.3171 9.52238 10.5273 9.70259 10.797C9.88279 11.0667 9.97897 11.3838 9.97897 11.7081C9.97897 12.1431 9.80619 12.5602 9.49863 12.8678C9.19107 13.1753 8.77393 13.3481 8.33898 13.3481ZM8.33898 11.3801C8.2741 11.3801 8.21069 11.3994 8.15675 11.4354C8.10281 11.4714 8.06077 11.5227 8.03594 11.5826C8.01112 11.6425 8.00462 11.7085 8.01728 11.7721C8.02993 11.8357 8.06117 11.8942 8.10704 11.94C8.15292 11.9859 8.21136 12.0172 8.27499 12.0298C8.33861 12.0425 8.40456 12.036 8.4645 12.0111C8.52443 11.9863 8.57566 11.9443 8.6117 11.8903C8.64774 11.8364 8.66698 11.773 8.66698 11.7081C8.66698 11.6211 8.63242 11.5377 8.57091 11.4762C8.50939 11.4147 8.42597 11.3801 8.33898 11.3801Z" fill="white"/>
<path d="M14.8978 13.3481C14.5735 13.3481 14.2564 13.2519 13.9867 13.0717C13.717 12.8915 13.5068 12.6354 13.3827 12.3357C13.2585 12.036 13.226 11.7063 13.2893 11.3882C13.3526 11.07 13.5088 10.7778 13.7382 10.5485C13.9675 10.3191 14.2597 10.1629 14.5779 10.0996C14.896 10.0363 15.2257 10.0688 15.5254 10.193C15.8251 10.3171 16.0812 10.5273 16.2614 10.797C16.4416 11.0667 16.5378 11.3838 16.5378 11.7081C16.5378 12.1431 16.365 12.5602 16.0575 12.8678C15.7499 13.1753 15.3328 13.3481 14.8978 13.3481ZM14.8978 11.3801C14.8329 11.3801 14.7695 11.3994 14.7156 11.4354C14.6616 11.4714 14.6196 11.5227 14.5948 11.5826C14.57 11.6425 14.5635 11.7085 14.5761 11.7721C14.5888 11.8357 14.62 11.8942 14.6659 11.94C14.7118 11.9859 14.7702 12.0172 14.8338 12.0298C14.8974 12.0425 14.9634 12.036 15.0233 12.0111C15.0833 11.9863 15.1345 11.9443 15.1705 11.8903C15.2066 11.8364 15.2258 11.773 15.2258 11.7081C15.2258 11.6211 15.1913 11.5377 15.1297 11.4762C15.0682 11.4147 14.9848 11.3801 14.8978 11.3801Z" fill="white"/>
<path d="M21.4579 13.3481C21.1335 13.3481 20.8164 13.2519 20.5467 13.0717C20.277 12.8915 20.0668 12.6354 19.9427 12.3357C19.8186 12.036 19.7861 11.7063 19.8494 11.3882C19.9127 11.07 20.0689 10.7778 20.2982 10.5485C20.5276 10.3191 20.8198 10.1629 21.1379 10.0996C21.4561 10.0363 21.7858 10.0688 22.0855 10.193C22.3851 10.3171 22.6413 10.5273 22.8215 10.797C23.0017 11.0667 23.0979 11.3838 23.0979 11.7081C23.0979 12.1431 22.9251 12.5602 22.6175 12.8678C22.31 13.1753 21.8928 13.3481 21.4579 13.3481ZM21.4579 11.3801C21.393 11.3801 21.3296 11.3994 21.2756 11.4354C21.2217 11.4714 21.1797 11.5227 21.1548 11.5826C21.13 11.6425 21.1235 11.7085 21.1362 11.7721C21.1488 11.8357 21.1801 11.8942 21.2259 11.94C21.2718 11.9859 21.3303 12.0172 21.3939 12.0298C21.4575 12.0425 21.5235 12.036 21.5834 12.0111C21.6433 11.9863 21.6946 11.9443 21.7306 11.8903C21.7666 11.8364 21.7859 11.773 21.7859 11.7081C21.7859 11.6211 21.7513 11.5377 21.6898 11.4762C21.6283 11.4147 21.5449 11.3801 21.4579 11.3801Z" fill="white"/>
</svg>
