<svg width="29" height="27" viewBox="0 0 29 27" fill="none" xmlns="http://www.w3.org/2000/svg">
<path d="M28.017 21.4021C27.7547 21.4019 27.5031 21.298 27.317 21.1131C27.2703 21.0672 27.2284 21.0166 27.192 20.9621C27.1559 20.9093 27.1273 20.8518 27.107 20.7911C27.0805 20.7322 27.0607 20.6705 27.048 20.6071C27.0346 20.5447 27.0279 20.481 27.028 20.4171C27.0282 20.3532 27.0349 20.2896 27.048 20.2271C27.0607 20.1637 27.0805 20.102 27.107 20.0431C27.1287 19.983 27.1572 19.9256 27.192 19.8721C27.2301 19.8189 27.2718 19.7684 27.317 19.7211C27.4312 19.6072 27.5716 19.523 27.7259 19.4761C27.8803 19.4292 28.0438 19.421 28.202 19.4521C28.2654 19.4648 28.3271 19.4846 28.386 19.5111C28.4461 19.5327 28.5035 19.5613 28.557 19.5961C28.6653 19.6695 28.7586 19.7628 28.832 19.8711C28.8668 19.9246 28.8954 19.982 28.917 20.0421C28.9435 20.101 28.9633 20.1627 28.976 20.2261C28.9891 20.2886 28.9958 20.3522 28.996 20.4161C28.9962 20.48 28.9895 20.5437 28.976 20.6061C28.9633 20.6695 28.9435 20.7312 28.917 20.7901C28.8967 20.8508 28.8681 20.9083 28.832 20.9611C28.7956 21.0156 28.7538 21.0662 28.707 21.1121C28.6597 21.1573 28.6092 21.199 28.556 21.2371C28.5012 21.2717 28.4441 21.3024 28.385 21.3291C28.3249 21.3503 28.2634 21.3677 28.201 21.3811C28.1406 21.3945 28.0789 21.4015 28.017 21.4021Z" fill="#867249"/>
<path d="M28.016 26.466C27.8583 26.466 27.7029 26.4279 27.563 26.355L20.206 22.53H1.78002C1.51905 22.53 1.26876 22.4263 1.08423 22.2418C0.899692 22.0573 0.796021 21.807 0.796021 21.546V1.86901C0.796021 1.60804 0.899692 1.35775 1.08423 1.17322C1.26876 0.988681 1.51905 0.88501 1.78002 0.88501H28.016C28.2763 0.886068 28.5256 0.990206 28.7092 1.17463C28.8929 1.35905 28.996 1.60873 28.996 1.86901V16.569C28.996 16.83 28.8923 17.0803 28.7078 17.2648C28.5233 17.4493 28.273 17.553 28.012 17.553C27.751 17.553 27.5008 17.4493 27.3162 17.2648C27.1317 17.0803 27.028 16.83 27.028 16.569V2.85301H2.76402V20.563H20.447C20.6051 20.563 20.7608 20.6011 20.901 20.674L28.47 24.609C28.6655 24.7107 28.8212 24.875 28.9122 25.0756C29.0032 25.2763 29.0242 25.5017 28.9719 25.7157C28.9195 25.9297 28.7969 26.12 28.6236 26.256C28.4503 26.3921 28.2363 26.466 28.016 26.466Z" fill="#867249"/>
<path d="M8.33904 13.3481C8.01468 13.3481 7.6976 13.2519 7.4279 13.0717C7.1582 12.8915 6.948 12.6354 6.82387 12.3357C6.69975 12.036 6.66727 11.7063 6.73055 11.3882C6.79383 11.07 6.95002 10.7778 7.17938 10.5485C7.40874 10.3191 7.70096 10.1629 8.01909 10.0996C8.33722 10.0363 8.66697 10.0688 8.96664 10.193C9.26631 10.3171 9.52244 10.5273 9.70265 10.797C9.88285 11.0667 9.97904 11.3838 9.97904 11.7081C9.97904 12.1431 9.80625 12.5602 9.49869 12.8678C9.19113 13.1753 8.77399 13.3481 8.33904 13.3481ZM8.33904 11.3801C8.27416 11.3801 8.21075 11.3994 8.15681 11.4354C8.10287 11.4714 8.06083 11.5227 8.036 11.5826C8.01118 11.6425 8.00468 11.7085 8.01734 11.7721C8.02999 11.8357 8.06123 11.8942 8.1071 11.94C8.15298 11.9859 8.21142 12.0172 8.27505 12.0298C8.33867 12.0425 8.40462 12.036 8.46456 12.0111C8.52449 11.9863 8.57572 11.9443 8.61176 11.8903C8.6478 11.8364 8.66704 11.773 8.66704 11.7081C8.66704 11.6211 8.63248 11.5377 8.57097 11.4762C8.50946 11.4147 8.42603 11.3801 8.33904 11.3801Z" fill="#867249"/>
<path d="M14.898 13.3481C14.5736 13.3481 14.2566 13.2519 13.9869 13.0717C13.7172 12.8915 13.507 12.6354 13.3828 12.3357C13.2587 12.036 13.2262 11.7063 13.2895 11.3882C13.3528 11.07 13.509 10.7778 13.7383 10.5485C13.9677 10.3191 14.2599 10.1629 14.578 10.0996C14.8962 10.0363 15.2259 10.0688 15.5256 10.193C15.8253 10.3171 16.0814 10.5273 16.2616 10.797C16.4418 11.0667 16.538 11.3838 16.538 11.7081C16.538 12.1431 16.3652 12.5602 16.0577 12.8678C15.7501 13.1753 15.333 13.3481 14.898 13.3481ZM14.898 11.3801C14.8331 11.3801 14.7697 11.3994 14.7158 11.4354C14.6618 11.4714 14.6198 11.5227 14.595 11.5826C14.5701 11.6425 14.5636 11.7085 14.5763 11.7721C14.589 11.8357 14.6202 11.8942 14.6661 11.94C14.7119 11.9859 14.7704 12.0172 14.834 12.0298C14.8976 12.0425 14.9636 12.036 15.0235 12.0111C15.0835 11.9863 15.1347 11.9443 15.1707 11.8903C15.2068 11.8364 15.226 11.773 15.226 11.7081C15.226 11.6211 15.1914 11.5377 15.1299 11.4762C15.0684 11.4147 14.985 11.3801 14.898 11.3801Z" fill="#867249"/>
<path d="M21.458 13.3481C21.1336 13.3481 20.8166 13.2519 20.5469 13.0717C20.2772 12.8915 20.067 12.6354 19.9428 12.3357C19.8187 12.036 19.7862 11.7063 19.8495 11.3882C19.9128 11.07 20.069 10.7778 20.2983 10.5485C20.5277 10.3191 20.8199 10.1629 21.138 10.0996C21.4562 10.0363 21.7859 10.0688 22.0856 10.193C22.3853 10.3171 22.6414 10.5273 22.8216 10.797C23.0018 11.0667 23.098 11.3838 23.098 11.7081C23.098 12.1431 22.9252 12.5602 22.6177 12.8678C22.3101 13.1753 21.8929 13.3481 21.458 13.3481ZM21.458 11.3801C21.3931 11.3801 21.3297 11.3994 21.2758 11.4354C21.2218 11.4714 21.1798 11.5227 21.155 11.5826C21.1301 11.6425 21.1236 11.7085 21.1363 11.7721C21.149 11.8357 21.1802 11.8942 21.2261 11.94C21.2719 11.9859 21.3304 12.0172 21.394 12.0298C21.4576 12.0425 21.5236 12.036 21.5835 12.0111C21.6434 11.9863 21.6947 11.9443 21.7307 11.8903C21.7668 11.8364 21.786 11.773 21.786 11.7081C21.786 11.6211 21.7514 11.5377 21.6899 11.4762C21.6284 11.4147 21.545 11.3801 21.458 11.3801Z" fill="#867249"/>
</svg>
