<svg width="13" height="16" viewBox="0 0 13 16" fill="none" xmlns="http://www.w3.org/2000/svg">
<path d="M6.20497 7.0733C6.99562 7.05962 7.74849 6.73256 8.2981 6.16402C8.84771 5.59547 9.14908 4.83196 9.13597 4.0413C9.15053 3.64728 9.0855 3.25438 8.94476 2.88607C8.80402 2.51776 8.59046 2.18161 8.31686 1.8977C8.04325 1.6138 7.71522 1.38798 7.35235 1.23374C6.98949 1.0795 6.59926 1 6.20497 1C5.81069 1 5.42045 1.0795 5.05759 1.23374C4.69473 1.38798 4.36669 1.6138 4.09309 1.8977C3.81948 2.18161 3.60593 2.51776 3.46519 2.88607C3.32445 3.25438 3.25941 3.64728 3.27397 4.0413C3.26086 4.83196 3.56224 5.59547 4.11184 6.16402C4.66145 6.73256 5.41432 7.05962 6.20497 7.0733Z" stroke="#8E754C" stroke-width="1.5"/>
<path d="M10.667 15.0094C10.7656 15.0085 10.8631 14.9881 10.9539 14.9496C11.0446 14.911 11.1269 14.8549 11.196 14.7845C11.2651 14.7141 11.3196 14.6308 11.3565 14.5393C11.3934 14.4479 11.4119 14.35 11.411 14.2514C11.4246 13.5593 11.3 12.8714 11.0445 12.228C10.789 11.5846 10.4078 10.9987 9.9231 10.5044C9.43842 10.0101 8.86004 9.61751 8.22179 9.34946C7.58355 9.08142 6.89825 8.94336 6.206 8.94336C5.51375 8.94336 4.82845 9.08142 4.19021 9.34946C3.55196 9.61751 2.97358 10.0101 2.4889 10.5044C2.00423 10.9987 1.623 11.5846 1.36752 12.228C1.11204 12.8714 0.987432 13.5593 1.001 14.2514C1.00008 14.35 1.01859 14.4479 1.05548 14.5393C1.09237 14.6308 1.14692 14.7141 1.216 14.7845C1.28509 14.8549 1.36737 14.911 1.45813 14.9496C1.5489 14.9881 1.64638 15.0085 1.745 15.0094H10.667Z" stroke="#8E754C" stroke-width="1.5"/>
</svg>
