<svg width="19" height="22" viewBox="0 0 19 22" fill="none" xmlns="http://www.w3.org/2000/svg">
<path d="M9.49597 21.8939C10.076 21.8913 10.6315 21.6597 11.0416 21.2496C11.4518 20.8394 11.6833 20.2839 11.686 19.7039H7.30596C7.3086 20.2839 7.54017 20.8394 7.95031 21.2496C8.36044 21.6597 8.91595 21.8913 9.49597 21.8939ZM16.613 15.3239V9.30091C16.6201 7.69986 16.0817 6.14413 15.0866 4.88994C14.0914 3.63574 12.6987 2.75787 11.138 2.40091V1.63591C11.138 1.42021 11.0955 1.20663 11.0129 1.00735C10.9304 0.808074 10.8094 0.627006 10.6569 0.474485C10.5044 0.321965 10.3233 0.20098 10.124 0.118436C9.92475 0.0358929 9.71116 -0.0065918 9.49547 -0.0065918C9.27977 -0.0065918 9.06618 0.0358929 8.86691 0.118436C8.66763 0.20098 8.48656 0.321965 8.33404 0.474485C8.18152 0.627006 8.06054 0.808074 7.97799 1.00735C7.89545 1.20663 7.85296 1.42021 7.85296 1.63591V2.40191C6.29221 2.75887 4.89956 3.63674 3.90438 4.89094C2.9092 6.14513 2.37084 7.70086 2.37796 9.30191V15.3239L0.188965 17.5129V18.6079H18.803V17.5129L16.613 15.3239ZM14.423 16.4189H4.56896V9.30091C4.56896 7.99419 5.08806 6.74098 6.01205 5.81699C6.93604 4.893 8.18924 4.37391 9.49597 4.37391C10.8027 4.37391 12.0559 4.893 12.9799 5.81699C13.9039 6.74098 14.423 7.99419 14.423 9.30091V16.4189Z" fill="#937445"/>
</svg>
