<svg width="16" height="17" viewBox="0 0 16 17" fill="none" xmlns="http://www.w3.org/2000/svg">
<path d="M1.04873 13.0993L2.2204 11.3889C2.75426 10.6201 3.04204 9.70732 3.04561 8.77137V7.27098C3.09052 6.31972 3.4496 5.41019 4.06664 4.6848C4.68367 3.95941 5.52383 3.45911 6.45558 3.26222V2.19285C6.49999 1.86259 6.66272 1.55965 6.91357 1.34028C7.16441 1.12091 7.48633 1 7.81957 1C8.15281 1 8.47473 1.12091 8.72557 1.34028C8.97642 1.55965 9.13915 1.86259 9.18356 2.19285V3.26631C10.1153 3.4632 10.9555 3.9635 11.5725 4.68889C12.1895 5.41428 12.5486 6.32381 12.5935 7.27508V8.77137C12.5982 9.7065 12.8864 10.6182 13.4201 11.3861L14.5918 13.0966C14.6214 13.1413 14.6372 13.1937 14.6372 13.2473C14.6372 13.3009 14.6214 13.3533 14.5918 13.398C14.5588 13.4458 14.5145 13.4846 14.4629 13.511C14.4112 13.5375 14.3538 13.5507 14.2958 13.5494H1.3379C1.2797 13.5506 1.2221 13.5375 1.17022 13.511C1.11834 13.4846 1.0738 13.4458 1.04055 13.398C1.01271 13.3528 0.998649 13.3005 1.0001 13.2474C1.00156 13.1944 1.01845 13.1429 1.04873 13.0993Z" stroke="#8E7648"/>
<path d="M9.60916 14.8645C9.44936 15.2041 9.19624 15.4912 8.87935 15.6923C8.56247 15.8934 8.19491 16.0002 7.81961 16.0002C7.4443 16.0002 7.07674 15.8934 6.75986 15.6923C6.44298 15.4912 6.18986 15.2041 6.03006 14.8645H9.60916Z" stroke="#8E7648"/>
</svg>
