<svg width="28" height="27" viewBox="0 0 28 27" fill="none" xmlns="http://www.w3.org/2000/svg">
<path fill-rule="evenodd" clip-rule="evenodd" d="M2.63561 23.0005H17.5018V21.2971H2.63561C2.38876 21.2959 2.15236 21.1973 1.97781 21.0227C1.80326 20.8482 1.70467 20.6118 1.70348 20.3649V4.33898C1.70467 4.09213 1.80326 3.85573 1.97781 3.68118C2.15236 3.50663 2.38876 3.40804 2.63561 3.40685H22.9212C23.168 3.40804 23.4044 3.50663 23.579 3.68118C23.7535 3.85573 23.8521 4.09213 23.8533 4.33898V14.9456H25.5613V4.33898C25.5599 3.63963 25.2811 2.9694 24.7862 2.47531C24.2912 1.98122 23.6205 1.70361 22.9212 1.70337H2.63561C1.93705 1.7048 1.2675 1.98294 0.773535 2.4769C0.279572 2.97087 0.00143199 3.64042 0 4.33898L0 20.3649C0.00143199 21.0635 0.279572 21.733 0.773535 22.227C1.2675 22.721 1.93705 22.9991 2.63561 23.0005Z" fill="#0D405F"/>
<path d="M7.66644 5.11136C7.44054 5.11136 7.2239 5.02162 7.06417 4.86189C6.90443 4.70215 6.8147 4.48551 6.8147 4.25961V0.851742C6.8147 0.625846 6.90443 0.409202 7.06417 0.24947C7.2239 0.0897369 7.44054 0 7.66644 0C7.89234 0 8.10898 0.0897369 8.26871 0.24947C8.42844 0.409202 8.51818 0.625846 8.51818 0.851742V4.25961C8.51818 4.48551 8.42844 4.70215 8.26871 4.86189C8.10898 5.02162 7.89234 5.11136 7.66644 5.11136Z" fill="#0D405F"/>
<path d="M17.8901 5.11136C17.6642 5.11136 17.4475 5.02162 17.2878 4.86189C17.1281 4.70215 17.0383 4.48551 17.0383 4.25961V0.851742C17.0383 0.625846 17.1281 0.409202 17.2878 0.24947C17.4475 0.0897369 17.6642 0 17.8901 0C18.116 0 18.3326 0.0897369 18.4923 0.24947C18.6521 0.409202 18.7418 0.625846 18.7418 0.851742V4.25961C18.7418 4.48551 18.6521 4.70215 18.4923 4.86189C18.3326 5.02162 18.116 5.11136 17.8901 5.11136Z" fill="#0D405F"/>
<path d="M24.705 10.2225H0.851742C0.73989 10.2225 0.629133 10.2005 0.525795 10.1577C0.422457 10.1149 0.328561 10.0521 0.24947 9.97306C0.170378 9.89397 0.107639 9.80007 0.064835 9.69673C0.022031 9.59339 0 9.48264 0 9.37079C0 9.25893 0.022031 9.14818 0.064835 9.04484C0.107639 8.9415 0.170378 8.8476 0.24947 8.76851C0.328561 8.68942 0.422457 8.62668 0.525795 8.58388C0.629133 8.54107 0.73989 8.51904 0.851742 8.51904H24.705C24.8169 8.51904 24.9277 8.54107 25.031 8.58388C25.1343 8.62668 25.2282 8.68942 25.3073 8.76851C25.3864 8.8476 25.4491 8.9415 25.492 9.04484C25.5348 9.14818 25.5568 9.25893 25.5568 9.37079C25.5568 9.48264 25.5348 9.59339 25.492 9.69673C25.4491 9.80007 25.3864 9.89397 25.3073 9.97306C25.2282 10.0521 25.1343 10.1149 25.031 10.1577C24.9277 10.2005 24.8169 10.2225 24.705 10.2225Z" fill="#0D405F"/>
<path d="M27.8303 25.1902L26.9966 26.0239C26.8867 26.1326 26.7383 26.1936 26.5837 26.1936C26.4291 26.1936 26.2807 26.1326 26.1707 26.0239L19.1931 19.06C19.0021 19.1149 18.8046 19.1442 18.6059 19.1469C18.232 19.1469 17.8636 19.0576 17.5313 18.8865C17.1989 18.7153 16.9123 18.4672 16.6952 18.1629C16.4781 17.8586 16.3368 17.5068 16.2831 17.1369C16.2294 16.7669 16.2648 16.3895 16.3865 16.036L17.8778 17.5273L18.189 17.2183L19.0249 16.3824L19.3361 16.0712L17.8426 14.5798C18.1961 14.4579 18.5737 14.4223 18.9438 14.4759C19.314 14.5294 19.6659 14.6707 19.9704 14.8878C20.2749 15.105 20.5231 15.3917 20.6943 15.7242C20.8655 16.0567 20.9548 16.4253 20.9548 16.7993C20.952 16.998 20.9228 17.1955 20.8679 17.3865L27.8303 24.3621C27.939 24.4721 28 24.6205 28 24.7751C28 24.9297 27.939 25.0781 27.8303 25.188V25.1902ZM16.4278 24.3643C16.319 24.4742 16.2581 24.6226 16.2581 24.7773C16.2581 24.9319 16.319 25.0803 16.4278 25.1902L17.2614 26.0239C17.3714 26.1326 17.5198 26.1936 17.6744 26.1936C17.829 26.1936 17.9774 26.1326 18.0873 26.0239L21.299 22.8182L19.6395 21.1564L16.4278 24.3643ZM26.8262 14.4538L24.479 15.6274V16.801L23.205 18.075L24.3786 19.2486L25.6526 17.9746H26.8262L27.9998 15.6274L26.8262 14.4538Z" fill="#0D405F"/>
<circle cx="3.61294" cy="12.6452" r="0.903226" fill="#0D405F"/>
<circle cx="3.61294" cy="16.258" r="0.903226" fill="#0D405F"/>
<circle cx="3.61294" cy="19.871" r="0.903226" fill="#0D405F"/>
<circle cx="6.32242" cy="12.6452" r="0.903226" fill="#0D405F"/>
<circle cx="6.32242" cy="16.258" r="0.903226" fill="#0D405F"/>
<circle cx="6.32242" cy="19.871" r="0.903226" fill="#0D405F"/>
<circle cx="9.03213" cy="12.6452" r="0.903226" fill="#0D405F"/>
<circle cx="9.03213" cy="16.258" r="0.903226" fill="#0D405F"/>
<circle cx="9.03213" cy="19.871" r="0.903226" fill="#0D405F"/>
<circle cx="11.7421" cy="12.6452" r="0.903226" fill="#0D405F"/>
<circle cx="11.7421" cy="16.258" r="0.903226" fill="#0D405F"/>
<circle cx="11.7421" cy="19.871" r="0.903226" fill="#0D405F"/>
<circle cx="14.4518" cy="12.6452" r="0.903226" fill="#0D405F"/>
<circle cx="14.4518" cy="16.258" r="0.903226" fill="#0D405F"/>
<circle cx="14.4518" cy="19.871" r="0.903226" fill="#0D405F"/>
<circle cx="19.871" cy="12.6452" r="0.903226" fill="#0D405F"/>
<circle cx="22.5807" cy="12.6452" r="0.903226" fill="#0D405F"/>
<circle cx="17.1613" cy="12.6452" r="0.903226" fill="#0D405F"/>
</svg>
