<svg width="24" height="24" viewBox="0 0 24 24" fill="none" xmlns="http://www.w3.org/2000/svg">
<path d="M20.4699 16.213V18.7634C20.4709 19.0001 20.4223 19.2345 20.3273 19.4514C20.2322 19.6683 20.0929 19.863 19.9181 20.0231C19.7432 20.1832 19.5369 20.305 19.3121 20.3809C19.0874 20.4567 18.8493 20.4849 18.613 20.4636C15.9919 20.1793 13.4741 19.2854 11.262 17.8537C9.20393 16.5485 7.45903 14.8071 6.15123 12.7531C4.71167 10.5353 3.81581 8.01031 3.53621 5.38262C3.51492 5.14754 3.54292 4.9106 3.61841 4.68691C3.6939 4.46322 3.81523 4.25766 3.97469 4.08333C4.13414 3.909 4.32822 3.76971 4.54456 3.67434C4.76091 3.57897 4.99478 3.5296 5.23129 3.52938H7.78668C8.20006 3.52532 8.60082 3.67141 8.91426 3.94044C9.22769 4.20946 9.43242 4.58305 9.49028 4.99157C9.59813 5.80773 9.79816 6.6091 10.0865 7.38038C10.2011 7.68465 10.2259 8.01534 10.158 8.33325C10.0901 8.65116 9.93224 8.94297 9.70323 9.17411L8.62144 10.2538C9.83402 12.382 11.5997 14.1442 13.7322 15.3544L14.814 14.2748C15.0456 14.0462 15.338 13.8887 15.6565 13.8209C15.9751 13.7531 16.3064 13.7778 16.6113 13.8922C17.3841 14.18 18.1871 14.3797 19.0049 14.4873C19.4186 14.5456 19.7965 14.7536 20.0667 15.0717C20.3368 15.3899 20.4803 15.7961 20.4699 16.213Z" stroke="#8E7648" stroke-linecap="round" stroke-linejoin="round"/>
</svg>
