<svg width="16" height="16" viewBox="0 0 16 16" fill="none" xmlns="http://www.w3.org/2000/svg">
<path d="M5.33604 8.2628L7.06786 9.99462L11.0691 5.99341" stroke="#8E7648" stroke-linecap="round" stroke-linejoin="round"/>
<path d="M8.50996 14.9197C15.4638 12.6572 15.1642 5.81963 14.8912 3.6986C14.8543 3.5244 14.7524 3.37074 14.6062 3.26905C14.46 3.16735 14.2806 3.12517 14.1044 3.15112C13.0929 3.25498 12.071 3.13544 11.1108 2.80086C10.1506 2.46629 9.27568 1.92486 8.54777 1.21491C8.39868 1.07676 8.20291 1 7.99965 1C7.7964 1 7.60062 1.07676 7.45153 1.21491C6.72368 1.92494 5.84873 2.46645 4.88854 2.80103C3.92834 3.13561 2.90636 3.25508 1.89487 3.15112C1.7187 3.12517 1.53924 3.16735 1.39307 3.26905C1.24689 3.37074 1.14497 3.5244 1.10805 3.6986C0.835046 5.82103 0.535462 12.6586 7.48934 14.9197C7.82132 15.0255 8.17799 15.0255 8.50996 14.9197Z" stroke="#8E7648" stroke-linecap="round" stroke-linejoin="round"/>
</svg>
