<svg width="25" height="28" viewBox="0 0 25 28" fill="none" xmlns="http://www.w3.org/2000/svg">
<path d="M3.33374 1.45898V11.7672" stroke="white" stroke-width="1.5" stroke-linecap="round"/>
<path d="M3.33374 17.3994V26.5503" stroke="white" stroke-width="1.5" stroke-linecap="round"/>
<path d="M12.4993 5.93848V26.269" stroke="white" stroke-width="1.5" stroke-linecap="round"/>
<path d="M21.6663 1.45898V20.5408" stroke="white" stroke-width="1.5" stroke-linecap="round"/>
<path d="M3.33378 16.8184C4.73475 16.8184 5.87045 15.6827 5.87045 14.2818C5.87045 12.8808 4.73475 11.7451 3.33378 11.7451C1.93282 11.7451 0.797119 12.8808 0.797119 14.2818C0.797119 15.6827 1.93282 16.8184 3.33378 16.8184Z" stroke="white" stroke-width="1.5"/>
<path d="M12.5005 5.98495C13.9015 5.98495 15.0372 4.84925 15.0372 3.44829C15.0372 2.04733 13.9015 0.911621 12.5005 0.911621C11.0996 0.911621 9.96387 2.04733 9.96387 3.44829C9.96387 4.84925 11.0996 5.98495 12.5005 5.98495Z" stroke="white" stroke-width="1.5"/>
<path d="M21.6663 25.7545C23.0673 25.7545 24.203 24.6188 24.203 23.2178C24.203 21.8169 23.0673 20.6812 21.6663 20.6812C20.2653 20.6812 19.1296 21.8169 19.1296 23.2178C19.1296 24.6188 20.2653 25.7545 21.6663 25.7545Z" stroke="white" stroke-width="1.5"/>
</svg>
