<svg width="25" height="30" viewBox="0 0 25 30" fill="none" xmlns="http://www.w3.org/2000/svg">
<path d="M3.33366 2.22656V13.2554" stroke="#8E7648" stroke-width="1.5" stroke-linecap="round"/>
<path d="M3.33366 19.2817V29.0724" stroke="#8E7648" stroke-width="1.5" stroke-linecap="round"/>
<path d="M12.4993 7.01929V28.7711" stroke="#8E7648" stroke-width="1.5" stroke-linecap="round"/>
<path d="M21.6664 2.22656V22.6424" stroke="#8E7648" stroke-width="1.5" stroke-linecap="round"/>
<path d="M3.33374 18.6599C4.7347 18.6599 5.8704 17.4448 5.8704 15.9459C5.8704 14.447 4.7347 13.2319 3.33374 13.2319C1.93278 13.2319 0.797073 14.447 0.797073 15.9459C0.797073 17.4448 1.93278 18.6599 3.33374 18.6599Z" stroke="#8E7648" stroke-width="1.5"/>
<path d="M12.5006 7.06936C13.9016 7.06936 15.0373 5.85426 15.0373 4.35536C15.0373 2.85646 13.9016 1.64136 12.5006 1.64136C11.0997 1.64136 9.96396 2.85646 9.96396 4.35536C9.96396 5.85426 11.0997 7.06936 12.5006 7.06936Z" stroke="#8E7648" stroke-width="1.5"/>
<path d="M21.6662 28.2207C23.0672 28.2207 24.2029 27.0056 24.2029 25.5067C24.2029 24.0078 23.0672 22.7927 21.6662 22.7927C20.2652 22.7927 19.1295 24.0078 19.1295 25.5067C19.1295 27.0056 20.2652 28.2207 21.6662 28.2207Z" stroke="#8E7648" stroke-width="1.5"/>
</svg>
