<svg width="30" height="31" viewBox="0 0 30 31" fill="none" xmlns="http://www.w3.org/2000/svg">
<path fill-rule="evenodd" clip-rule="evenodd" d="M29.739 14.6011C29.7311 14.8413 29.6301 15.069 29.4574 15.2361C29.2847 15.4032 29.0538 15.4967 28.8135 15.4967C28.5732 15.4967 28.3423 15.4032 28.1696 15.2361C27.9969 15.069 27.8959 14.8413 27.888 14.6011C27.888 14.3561 26.344 13.2011 25.978 12.8291L24.978 11.8291H25.007C24.4774 11.1737 24.188 10.3567 24.187 9.51409V5.34709C24.1867 5.10158 24.0891 4.8662 23.9155 4.6926C23.7419 4.519 23.5065 4.42135 23.261 4.42109H21.41C21.1646 4.42135 20.9293 4.51903 20.7559 4.69266C20.5824 4.86629 20.485 5.10167 20.485 5.34709V5.66509C20.4859 5.80157 20.4464 5.93527 20.3715 6.04937C20.2966 6.16346 20.1896 6.25285 20.064 6.30629C19.9384 6.35974 19.7998 6.37484 19.6656 6.34972C19.5315 6.32459 19.4077 6.26036 19.31 6.16509L16.241 3.09409C16.0693 2.92207 15.8653 2.78561 15.6408 2.6925C15.4163 2.59939 15.1756 2.55147 14.9325 2.55147C14.6894 2.55147 14.4488 2.59939 14.2242 2.6925C13.9997 2.78561 13.7957 2.92207 13.624 3.09409L2.50001 14.2141C2.32751 14.3856 2.19071 14.5896 2.09751 14.8142C2.00431 15.0389 1.95655 15.2798 1.95701 15.5231H1.97701C1.95458 15.9697 2.10106 16.4084 2.38733 16.7519C2.6736 17.0954 3.07868 17.3186 3.52201 17.3771C4.14577 17.5212 4.70075 17.876 5.09333 18.3817C5.48591 18.8874 5.69206 19.5131 5.67701 20.1531V26.6311C5.67701 27.122 5.87202 27.5928 6.21915 27.9399C6.56628 28.2871 7.03709 28.4821 7.52801 28.4821H10.305C10.5504 28.4821 10.7858 28.3847 10.9594 28.2112C11.1331 28.0378 11.2307 27.8025 11.231 27.5571V21.5411C11.231 20.9275 11.4747 20.3391 11.9084 19.9052C12.3422 19.4713 12.9305 19.2274 13.544 19.2271H16.322C16.9355 19.2274 17.5239 19.4713 17.9576 19.9052C18.3913 20.3391 18.635 20.9275 18.635 21.5411V27.5561C18.635 27.8014 18.7325 28.0367 18.9059 28.2102C19.0794 28.3836 19.3147 28.4811 19.56 28.4811H22.337C22.8278 28.4808 23.2985 28.2857 23.6456 27.9386C23.9926 27.5916 24.1877 27.1209 24.188 26.6301V20.1531C24.188 19.9078 24.2855 19.6725 24.4589 19.499C24.6324 19.3255 24.8677 19.2281 25.113 19.2281C25.3583 19.2281 25.5936 19.3255 25.7671 19.499C25.9406 19.6725 26.038 19.9078 26.038 20.1531V26.6311C26.038 27.6124 25.6482 28.5535 24.9543 29.2474C24.2604 29.9413 23.3193 30.3311 22.338 30.3311H19.559C18.8228 30.3311 18.1167 30.0386 17.5961 29.518C17.0755 28.9974 16.783 28.2913 16.783 27.5551V22.0041C16.783 21.8826 16.7591 21.7623 16.7126 21.6501C16.6661 21.5379 16.598 21.4359 16.5121 21.35C16.4262 21.2641 16.3242 21.196 16.212 21.1495C16.0998 21.103 15.9795 21.0791 15.858 21.0791H14.007C13.7617 21.0791 13.5264 21.1765 13.3529 21.35C13.1795 21.5235 13.082 21.7588 13.082 22.0041V27.5561C13.082 28.2923 12.7895 28.9984 12.2689 29.519C11.7483 30.0396 11.0422 30.3321 10.306 30.3321H7.52901C6.54771 30.3321 5.6066 29.9423 4.91271 29.2484C4.21883 28.5545 3.82901 27.6134 3.82901 26.6321V20.1531C3.80557 19.9037 3.70296 19.6683 3.53617 19.4813C3.36938 19.2944 3.14716 19.1657 2.90201 19.1141C2.8937 19.111 2.88594 19.1066 2.87901 19.1011C2.08937 18.893 1.39076 18.4295 0.892072 17.7828C0.393382 17.1362 0.122628 16.3427 0.122007 15.5261V15.7311C0.0899021 15.212 0.168221 14.692 0.351798 14.2054C0.535374 13.7188 0.820037 13.2766 1.18701 12.9081L12.315 1.78409C13.0136 1.09817 13.9535 0.713867 14.9325 0.713867C15.9115 0.713867 16.8514 1.09817 17.55 1.78409L19.177 3.41409C19.392 3.15208 19.6622 2.94082 19.9684 2.79543C20.2746 2.65005 20.6091 2.57412 20.948 2.57309H23.722C24.0258 2.57282 24.3266 2.63239 24.6073 2.74839C24.888 2.86438 25.1432 3.03454 25.3581 3.24913C25.5731 3.46373 25.7437 3.71857 25.8602 3.99909C25.9767 4.27962 26.0367 4.58034 26.037 4.88409V9.51409C26.0371 9.99247 26.2237 10.452 26.557 10.7951L28.674 12.9121C29.401 13.6381 29.739 14.0001 29.739 14.6041V14.6011ZM26.962 17.3771C27.145 17.3771 27.3238 17.4313 27.4759 17.533C27.628 17.6346 27.7466 17.7791 27.8166 17.9481C27.8866 18.1171 27.9049 18.3031 27.8692 18.4825C27.8335 18.662 27.7454 18.8268 27.6161 18.9562C27.4867 19.0855 27.3219 19.1736 27.1425 19.2093C26.963 19.245 26.777 19.2267 26.608 19.1567C26.439 19.0867 26.2945 18.9681 26.1929 18.816C26.0913 18.6639 26.037 18.485 26.037 18.3021C26.037 18.1806 26.0609 18.0603 26.1074 17.9481C26.1539 17.8359 26.222 17.7339 26.3079 17.648C26.3938 17.5621 26.4958 17.494 26.608 17.4475C26.7203 17.401 26.8405 17.3771 26.962 17.3771Z" fill="#8F734A"/>
</svg>
