<svg width="18" height="18" viewBox="0 0 18 18" fill="none" xmlns="http://www.w3.org/2000/svg">
<path fill-rule="evenodd" clip-rule="evenodd" d="M8.382 14.528C8.49256 14.528 8.60064 14.5608 8.69256 14.6222C8.78449 14.6836 8.85614 14.7709 8.89845 14.8731C8.94076 14.9752 8.95183 15.0876 8.93026 15.1961C8.90869 15.3045 8.85545 15.4041 8.77727 15.4823C8.69909 15.5605 8.59949 15.6137 8.49106 15.6353C8.38262 15.6568 8.27022 15.6458 8.16808 15.6034C8.06594 15.5611 7.97863 15.4895 7.91721 15.3976C7.85578 15.3056 7.823 15.1976 7.823 15.087C7.823 14.9387 7.88189 14.7966 7.98673 14.6917C8.09156 14.5869 8.23374 14.528 8.382 14.528ZM7.823 10.616C7.823 10.4677 7.88189 10.3256 7.98673 10.2207C8.09156 10.1159 8.23374 10.057 8.382 10.057C8.53026 10.057 8.67244 10.1159 8.77727 10.2207C8.8821 10.3256 8.941 10.4677 8.941 10.616V12.851C8.941 12.9993 8.8821 13.1414 8.77727 13.2463C8.67244 13.3511 8.53026 13.41 8.382 13.41C8.23374 13.41 8.09156 13.3511 7.98673 13.2463C7.88189 13.1414 7.823 12.9993 7.823 12.851V10.616ZM15.646 17.88H2.235C1.64241 17.88 1.07408 17.6447 0.65497 17.2257C0.235855 16.8068 0.000265139 16.2386 0 15.646L0 10.617C2.20919e-09 10.4687 0.0588945 10.3266 0.163727 10.2217C0.26856 10.1169 0.410744 10.058 0.559 10.058C0.707256 10.058 0.84944 10.1169 0.954273 10.2217C1.05911 10.3266 1.118 10.4687 1.118 10.617V15.367C1.118 15.7383 1.2655 16.0944 1.52805 16.3569C1.7906 16.6195 2.1467 16.767 2.518 16.767H15.367C15.7383 16.767 16.0944 16.6195 16.3569 16.3569C16.6195 16.0944 16.767 15.7383 16.767 15.367V10.337C16.767 9.9657 16.6195 9.6096 16.3569 9.34705C16.0944 9.0845 15.7383 8.937 15.367 8.937H5.029C4.58502 8.937 4.15917 8.76083 3.84495 8.44717C3.53072 8.13351 3.35379 7.70798 3.353 7.264V5.588C3.353 4.10597 3.94173 2.68464 4.98969 1.63669C6.03764 0.588734 7.45897 0 8.941 0C10.423 0 11.8444 0.588734 12.8923 1.63669C13.9403 2.68464 14.529 4.10597 14.529 5.588V6.147C14.529 6.29526 14.4701 6.43744 14.3653 6.54227C14.2604 6.64711 14.1183 6.706 13.97 6.706C13.8217 6.706 13.6796 6.64711 13.5747 6.54227C13.4699 6.43744 13.411 6.29526 13.411 6.147V5.588C13.411 4.40248 12.9401 3.26552 12.1018 2.42723C11.2635 1.58895 10.1265 1.118 8.941 1.118C7.75548 1.118 6.61852 1.58895 5.78023 2.42723C4.94195 3.26552 4.471 4.40248 4.471 5.588V6.988C4.47087 7.09813 4.49245 7.20721 4.5345 7.309C4.57656 7.41078 4.63826 7.50328 4.71609 7.5812C4.79392 7.65912 4.88634 7.72094 4.98808 7.76312C5.08982 7.80529 5.19887 7.827 5.309 7.827H15.646C16.2388 7.827 16.8072 8.06247 17.2264 8.48162C17.6455 8.90076 17.881 9.46924 17.881 10.062V15.65C17.881 16.2428 17.6455 16.8112 17.2264 17.2304C16.8072 17.6495 16.2388 17.885 15.646 17.885V17.88ZM1.676 8.94C1.56544 8.94 1.45736 8.90722 1.36544 8.84579C1.27351 8.78437 1.20186 8.69706 1.15955 8.59492C1.11724 8.49278 1.10617 8.38038 1.12774 8.27194C1.14931 8.16351 1.20255 8.0639 1.28073 7.98573C1.3589 7.90755 1.45851 7.85431 1.56694 7.83274C1.67538 7.81117 1.78778 7.82224 1.88992 7.86455C1.99206 7.90686 2.07937 7.97851 2.14079 8.07044C2.20222 8.16236 2.235 8.27044 2.235 8.381C2.235 8.52926 2.17611 8.67144 2.07127 8.77627C1.96644 8.88111 1.82426 8.94 1.676 8.94Z" fill="#8E754C"/>
</svg>
