<svg width="18" height="11" viewBox="0 0 18 11" fill="none" xmlns="http://www.w3.org/2000/svg">
<path fill-rule="evenodd" clip-rule="evenodd" d="M6.38999 4.01899C6.31386 3.94293 6.26201 3.84599 6.24098 3.74046C6.21995 3.63492 6.23069 3.52552 6.27185 3.42609C6.31301 3.32666 6.38274 3.24167 6.47221 3.18187C6.56168 3.12207 6.66688 3.09016 6.77449 3.09016C6.8821 3.09016 6.9873 3.12207 7.07677 3.18187C7.16624 3.24167 7.23597 3.32666 7.27713 3.42609C7.31829 3.52552 7.32903 3.63492 7.308 3.74046C7.28697 3.84599 7.23512 3.94293 7.15899 4.01899C7.10855 4.06957 7.04862 4.10971 6.98264 4.13709C6.91666 4.16448 6.84593 4.17857 6.77449 4.17857C6.70305 4.17857 6.63232 4.16448 6.56634 4.13709C6.50036 4.10971 6.44043 4.06957 6.38999 4.01899ZM11.006 3.24998C11.6184 3.8621 11.9625 4.69243 11.9627 5.55828C11.9629 6.42414 11.6191 7.2546 11.007 7.86699C10.3949 8.47937 9.56455 8.82351 8.6987 8.8237C7.83284 8.82389 7.00238 8.48011 6.38999 7.86799C6.08401 7.56705 5.8417 7.20764 5.67746 6.81113C5.51323 6.41463 5.43043 5.98915 5.43399 5.55999C5.43571 5.41598 5.49458 5.27855 5.59763 5.17793C5.64865 5.12811 5.70899 5.08883 5.7752 5.06233C5.8414 5.03583 5.91218 5.02264 5.98349 5.02349C6.0548 5.02434 6.12524 5.03923 6.19079 5.06731C6.25635 5.09538 6.31573 5.1361 6.36555 5.18713C6.41536 5.23815 6.45464 5.29849 6.48114 5.36469C6.50764 5.4309 6.52084 5.50168 6.51999 5.57299C6.51872 5.85693 6.57435 6.13824 6.68358 6.40034C6.79282 6.66243 6.95345 6.89999 7.15599 7.09899C7.35823 7.3011 7.59829 7.46138 7.86247 7.57071C8.12666 7.68004 8.40979 7.73626 8.6957 7.73617C8.98161 7.73607 9.2647 7.67967 9.52882 7.57017C9.79293 7.46067 10.0329 7.30023 10.235 7.09799C10.4371 6.89576 10.5974 6.65569 10.7067 6.39151C10.816 6.12733 10.8723 5.84419 10.8722 5.55828C10.8721 5.27237 10.8157 4.98928 10.7062 4.72517C10.5967 4.46105 10.4362 4.22109 10.234 4.01899C10.0349 3.81632 9.79716 3.65562 9.53488 3.54639C9.27261 3.43715 8.9911 3.38159 8.70699 3.38299C8.63303 3.38564 8.55932 3.37297 8.49048 3.34578C8.42165 3.31859 8.35918 3.27747 8.30699 3.22499C8.23112 3.14886 8.1795 3.05195 8.15865 2.9465C8.1378 2.84106 8.14866 2.7318 8.18985 2.63252C8.23104 2.53324 8.30071 2.44839 8.39008 2.38867C8.47945 2.32895 8.58451 2.29705 8.69199 2.29699C9.12104 2.29416 9.54631 2.3773 9.94271 2.54149C10.3391 2.70568 10.6986 2.94761 11 3.25299L11.006 3.24998ZM16.859 6.10199C16.7558 6.10161 16.6548 6.07189 16.5679 6.01629C16.481 5.96069 16.4116 5.88151 16.368 5.78799C15.5848 4.43326 14.4683 3.30124 13.1244 2.49947C11.7806 1.69769 10.2541 1.25278 8.68999 1.20699C7.16299 1.20728 5.66299 1.60976 4.34095 2.37392C3.0189 3.13807 1.92144 4.23696 1.15899 5.55999C2.28285 7.51133 4.12038 8.95014 6.28431 9.5732C8.44823 10.1963 10.7695 9.9549 12.759 8.89999C12.8241 8.86093 12.8967 8.83599 12.972 8.82677C13.0473 8.81755 13.1238 8.82426 13.1964 8.84647C13.269 8.86867 13.3361 8.90588 13.3934 8.95567C13.4507 9.00547 13.4969 9.06674 13.529 9.13553C13.5611 9.20431 13.5784 9.27908 13.5797 9.35497C13.5811 9.43087 13.5665 9.5062 13.5369 9.5761C13.5073 9.646 13.4634 9.70891 13.4079 9.76074C13.3525 9.81257 13.2867 9.85218 13.215 9.87699C12.0671 10.4816 10.8095 10.8497 9.51681 10.9593C8.22407 11.0689 6.92248 10.9179 5.68917 10.5153C4.45586 10.1126 3.31595 9.46642 2.33698 8.61507C1.35801 7.76371 0.559912 6.72449 -0.0100098 5.55899C0.776947 3.96124 1.9866 2.60963 3.48759 1.65092C4.98858 0.692209 6.72355 0.163049 8.50409 0.120895C10.2846 0.0787421 12.0427 0.525208 13.5874 1.41181C15.132 2.29842 16.4043 3.59127 17.266 5.14999C17.3036 5.21561 17.3351 5.28457 17.36 5.35599C17.386 5.41949 17.3996 5.48737 17.4 5.55598C17.4 5.70026 17.3427 5.83863 17.2407 5.94065C17.1386 6.04267 17.0003 6.09999 16.856 6.09999L16.859 6.10199ZM14.682 7.73399C14.7896 7.73399 14.8948 7.76589 14.9842 7.82567C15.0737 7.88544 15.1434 7.97041 15.1846 8.06981C15.2258 8.16921 15.2365 8.27859 15.2155 8.38412C15.1945 8.48964 15.1427 8.58657 15.0667 8.66265C14.9906 8.73873 14.8936 8.79055 14.7881 8.81154C14.6826 8.83253 14.5732 8.82175 14.4738 8.78058C14.3744 8.7394 14.2894 8.66968 14.2297 8.58022C14.1699 8.49076 14.138 8.38558 14.138 8.27798C14.138 8.13371 14.1953 7.99534 14.2973 7.89332C14.3993 7.7913 14.5377 7.73399 14.682 7.73399Z" fill="#8E7648"/>
</svg>
