<svg width="23" height="17" viewBox="0 0 23 17" fill="none" xmlns="http://www.w3.org/2000/svg">
<path fill-rule="evenodd" clip-rule="evenodd" d="M1.68979 15.2597C1.7793 15.1702 1.89333 15.1093 2.01748 15.0846C2.14163 15.0599 2.27031 15.0726 2.38726 15.121C2.5042 15.1694 2.60416 15.2515 2.67448 15.3567C2.7448 15.462 2.78234 15.5857 2.78234 15.7123C2.78234 15.8389 2.74481 15.9626 2.67448 16.0678C2.60416 16.1731 2.5042 16.2551 2.38726 16.3036C2.27031 16.352 2.14163 16.3647 2.01748 16.34C1.89333 16.3153 1.7793 16.2543 1.68979 16.1648C1.56977 16.0448 1.50234 15.882 1.50234 15.7123C1.50234 15.5425 1.56977 15.3798 1.68979 15.2597ZM1.15805 13.161L3.14431 9.19488C3.14475 9.19083 3.14546 9.18681 3.14643 9.18286C3.25201 8.96208 3.30681 8.72047 3.30681 8.47575C3.30681 8.23103 3.25201 7.98942 3.14643 7.76864L0.921874 3.32094C0.918581 3.30929 0.914324 3.29794 0.909147 3.287C0.784177 3.03893 0.719034 2.76504 0.718935 2.48726C0.720137 2.0141 0.908633 1.56067 1.24321 1.22609C1.57778 0.891516 2.03122 0.70302 2.50438 0.701818C2.72341 0.701708 2.94059 0.741979 3.14502 0.820612C3.15451 0.823449 3.1642 0.825576 3.17401 0.826976L20.9309 6.74546C20.943 6.75407 20.9563 6.76076 20.9705 6.76526C21.3287 6.8848 21.6402 7.11396 21.861 7.42032C22.0817 7.72667 22.2006 8.0947 22.2007 8.47231C22.2007 8.84993 22.0821 9.21801 21.8614 9.52445C21.6408 9.8309 21.3293 10.0602 20.9712 10.1799C20.9551 10.1845 20.9398 10.1917 20.9259 10.2011L6.53065 15.0038C6.45126 15.0389 6.36556 15.0577 6.27874 15.0589C6.19191 15.06 6.10574 15.0436 6.02544 15.0106C5.94513 14.9775 5.87235 14.9286 5.81148 14.8666C5.75061 14.8047 5.70292 14.7311 5.67128 14.6502C5.63964 14.5693 5.62471 14.4829 5.62739 14.3961C5.63006 14.3093 5.65029 14.224 5.68685 14.1452C5.72342 14.0664 5.77556 13.9959 5.84012 13.9378C5.90469 13.8797 5.98035 13.8354 6.06254 13.8073L20.5851 8.96648C20.5851 8.96648 20.5851 8.96648 20.5936 8.958C20.6939 8.92122 20.7803 8.85403 20.8406 8.7658C20.9009 8.67757 20.9321 8.5727 20.93 8.46585C20.9278 8.35901 20.8923 8.25551 20.8284 8.16981C20.7646 8.08411 20.6755 8.0205 20.5738 7.98785C20.5625 7.9836 20.5674 7.98148 20.5646 7.97865L2.63237 2.0036C2.58476 1.9853 2.53417 1.97595 2.48317 1.97602C2.41255 1.97543 2.34295 1.99278 2.28087 2.02644C2.21879 2.0601 2.16628 2.10898 2.12826 2.16849C2.09024 2.22799 2.06795 2.29618 2.06349 2.36665C2.05903 2.43713 2.07253 2.50758 2.10274 2.57141L4.29124 7.26306C4.46348 7.64124 4.55309 8.05181 4.55406 8.46736C4.55504 8.88292 4.46736 9.2939 4.2969 9.67288L2.41033 13.7175L2.39973 13.7409C2.36321 13.8251 2.31012 13.9011 2.24364 13.9644C2.17715 14.0277 2.09862 14.077 2.01271 14.1094C1.92679 14.1418 1.83525 14.1565 1.74352 14.1528C1.65178 14.1491 1.56174 14.127 1.47872 14.0878C1.39571 14.0486 1.32142 13.9931 1.26028 13.9246C1.19914 13.8561 1.15239 13.776 1.1228 13.6891C1.09322 13.6022 1.08141 13.5102 1.08807 13.4187C1.09473 13.3271 1.11973 13.2378 1.16158 13.1561L1.15805 13.161Z" fill="white"/>
</svg>
