<svg width="19" height="19" viewBox="0 0 19 19" fill="none" xmlns="http://www.w3.org/2000/svg">
<path fill-rule="evenodd" clip-rule="evenodd" d="M5.87199 7.65792C5.79277 7.73706 5.7388 7.83791 5.71691 7.94772C5.69502 8.05753 5.7062 8.17136 5.74902 8.27482C5.79184 8.37828 5.86438 8.46672 5.95747 8.52894C6.05057 8.59116 6.16002 8.62437 6.27199 8.62437C6.38396 8.62437 6.49342 8.59116 6.58651 8.52894C6.6796 8.46672 6.75215 8.37828 6.79497 8.27482C6.83779 8.17136 6.84896 8.05753 6.82707 7.94772C6.80518 7.83791 6.75121 7.73706 6.67199 7.65792C6.56587 7.55191 6.422 7.49237 6.27199 7.49237C6.12199 7.49237 5.97812 7.55191 5.87199 7.65792ZM17.872 13.2579L16.272 11.6579C16.1792 11.5669 16.0788 11.484 15.972 11.4099C15.929 11.3799 15.885 11.3519 15.84 11.3259C15.7814 11.2895 15.721 11.2561 15.659 11.2259C15.5144 11.1556 15.3629 11.1003 15.207 11.0609C14.8307 10.9679 14.4368 10.9735 14.0633 11.0772C13.6898 11.1809 13.3494 11.3792 13.075 11.6529C13.0067 11.6983 12.9351 11.7388 12.861 11.7739C12.4284 12.0415 11.9181 12.1554 11.4127 12.0972C10.9074 12.0389 10.4364 11.8119 10.076 11.4529L7.87599 9.25292C7.76875 9.15261 7.62672 9.0979 7.4799 9.10034C7.33307 9.10279 7.19295 9.16221 7.08911 9.26604C6.98528 9.36988 6.92586 9.51 6.92341 9.65683C6.92096 9.80365 6.97568 9.94568 7.07599 10.0529L9.27599 12.2529C9.88407 12.8605 10.7001 13.2145 11.5592 13.2435C12.4183 13.2725 13.2564 12.9742 13.904 12.4089C14.1221 12.2138 14.4067 12.1097 14.6992 12.1179C14.9918 12.1261 15.2701 12.246 15.477 12.4529L17.077 14.0529C17.289 14.2652 17.4081 14.5529 17.4081 14.8529C17.4081 15.1529 17.289 15.4407 17.077 15.6529L16.277 16.4529C16.2467 16.4829 16.2111 16.507 16.172 16.5239C14.372 17.9709 10.235 16.4109 6.27199 12.4529C2.30899 8.49492 0.765992 4.39492 2.18499 2.58192C2.20617 2.53533 2.23565 2.49297 2.27199 2.45692L2.34199 2.38792L3.07199 1.65792C3.17696 1.5527 3.30165 1.46922 3.43893 1.41226C3.5762 1.3553 3.72337 1.32598 3.87199 1.32598C4.02062 1.32598 4.16778 1.3553 4.30506 1.41226C4.44234 1.46922 4.56703 1.5527 4.67199 1.65792L6.27199 3.25792C6.4773 3.46388 6.5953 3.74106 6.60145 4.03181C6.60759 4.32255 6.50141 4.60447 6.30499 4.81892L6.31399 4.83092C6.30099 4.84192 6.28399 4.84592 6.27199 4.85892C6.17168 4.96616 6.11696 5.10819 6.11941 5.25502C6.12186 5.40184 6.18128 5.54197 6.28511 5.6458C6.38895 5.74964 6.52907 5.80906 6.6759 5.8115C6.82272 5.81395 6.96475 5.75924 7.07199 5.65892C7.34537 5.3841 7.54322 5.04338 7.6464 4.66972C7.74958 4.29606 7.75461 3.90209 7.66099 3.52592C7.62191 3.36959 7.56661 3.21777 7.49599 3.07292C7.46799 3.01292 7.43699 2.95392 7.40299 2.89592C7.36899 2.83792 7.34699 2.80392 7.31599 2.75892C7.24248 2.65198 7.15983 2.5516 7.06899 2.45892L5.46899 0.858924C5.04461 0.434641 4.46909 0.196289 3.86899 0.196289C3.2689 0.196289 2.69337 0.434641 2.26899 0.858924L1.26899 1.85892C-0.719007 3.84692 1.06899 8.85892 5.46899 13.2589C9.86899 17.6589 14.881 19.4479 16.869 17.4589L17.869 16.4589C18.2933 16.0345 18.5316 15.459 18.5316 14.8589C18.5316 14.2588 18.2933 13.6833 17.869 13.2589L17.872 13.2579Z" fill="white"/>
</svg>
