<svg width="26" height="28" viewBox="0 0 26 28" fill="none" xmlns="http://www.w3.org/2000/svg">
<path fill-rule="evenodd" clip-rule="evenodd" d="M22.383 27.9121H3.2C2.35131 27.9121 1.53737 27.5514 0.937258 26.9093C0.337142 26.2672 0 25.3964 0 24.4884L0 21.9206C0 20.5511 0.977 19.3014 2.606 18.2979C2.7345 18.1951 2.89059 18.1396 3.051 18.1395C3.21608 18.1398 3.37647 18.1983 3.50729 18.3061C3.63811 18.4138 3.73205 18.5647 3.77455 18.7354C3.81706 18.906 3.80574 19.0869 3.74236 19.25C3.67898 19.4131 3.56707 19.5493 3.424 19.6374C2.274 20.3221 1.6 21.1107 1.6 21.9249V24.4926C1.6 24.9466 1.76857 25.3821 2.06863 25.7031C2.36869 26.0241 2.77565 26.2045 3.2 26.2045H22.383C22.8073 26.2045 23.2143 26.0241 23.5144 25.7031C23.8144 25.3821 23.983 24.9466 23.983 24.4926V21.9249C23.983 19.5636 18.972 17.6452 12.792 17.6452C11.3799 17.6452 10.0079 17.1427 8.892 16.2169C8.14452 15.5997 7.53279 14.8144 7.1 13.9166C7.077 13.8684 7.057 13.8235 7.036 13.7754C6.959 13.6042 6.887 13.4287 6.823 13.25C6.799 13.1858 6.777 13.1206 6.756 13.0553C6.7 12.8873 6.656 12.7151 6.611 12.5418C6.593 12.4701 6.574 12.3984 6.558 12.3278C6.52 12.1491 6.491 11.9683 6.466 11.7853C6.457 11.7147 6.443 11.6462 6.436 11.5713C6.41047 11.3173 6.39845 11.0619 6.4 10.8064V5.67829C6.4 4.31625 6.90571 3.01 7.80589 2.0469C8.70606 1.08379 9.92696 0.542725 11.2 0.542725L14.4 0.542725C15.673 0.542725 16.8939 1.08379 17.7941 2.0469C18.6943 3.01 19.2 4.31625 19.2 5.67829V10.8139C19.1964 11.9505 18.9246 13.0677 18.41 14.0621C18.381 14.1805 18.3287 14.2909 18.2565 14.3858C18.1842 14.4807 18.0938 14.5579 17.9914 14.6122C17.8889 14.6666 17.7767 14.6968 17.6624 14.7008C17.548 14.7048 17.4342 14.6826 17.3286 14.6355C17.223 14.5885 17.1281 14.5178 17.0502 14.4282C16.9723 14.3386 16.9133 14.2321 16.8771 14.116C16.841 13.9999 16.8285 13.8768 16.8405 13.7551C16.8526 13.6334 16.8889 13.5159 16.947 13.4105L16.938 13.4052C17.3131 12.7221 17.5346 11.9551 17.585 11.1648C17.5961 11.0482 17.6014 10.931 17.601 10.8139V5.67829C17.601 4.77026 17.2639 3.89943 16.6637 3.25736C16.0636 2.61529 15.2497 2.25458 14.401 2.25458H11.201C10.3523 2.25458 9.53837 2.61529 8.93826 3.25736C8.33814 3.89943 8.001 4.77026 8.001 5.67829V10.8139C8.00063 10.931 8.00597 11.0482 8.017 11.1648C8.09746 12.4218 8.6078 13.603 9.45058 14.483C10.2934 15.363 11.4095 15.8801 12.586 15.9355C12.6561 15.9434 12.7265 15.947 12.797 15.9462C14.1016 15.9445 15.4047 16.0396 16.697 16.2308C17.014 16.2779 17.324 16.3314 17.63 16.3891H17.653C17.947 16.4458 18.234 16.5079 18.516 16.5742L18.616 16.5978C19.176 16.7326 19.716 16.8856 20.222 17.0546C20.247 17.0643 20.272 17.0696 20.296 17.0792C20.544 17.1627 20.786 17.2526 21.02 17.3446L21.094 17.3745C21.3153 17.463 21.5303 17.555 21.739 17.6506L21.792 17.6752C22.011 17.7757 22.219 17.8795 22.421 17.9876L22.496 18.0282C22.696 18.1352 22.891 18.2486 23.074 18.3642L23.087 18.3728C23.262 18.4797 23.425 18.5974 23.587 18.713L23.672 18.7761C23.83 18.8959 23.981 19.0179 24.121 19.142L24.166 19.1827C24.304 19.3079 24.435 19.4352 24.554 19.5646L24.572 19.5839C24.6838 19.7083 24.7896 19.8386 24.889 19.9744C24.91 20.0054 24.934 20.0333 24.955 20.0643C25.0445 20.1923 25.1273 20.3255 25.203 20.4634C25.211 20.4805 25.22 20.4965 25.229 20.5136C25.295 20.6414 25.3531 20.7737 25.403 20.9095C25.41 20.9298 25.42 20.9491 25.426 20.9694C25.4743 21.1087 25.5124 21.2518 25.54 21.3974C25.54 21.4252 25.549 21.453 25.553 21.4819C25.5777 21.6295 25.5908 21.7792 25.592 21.9291V24.4969C25.592 25.4049 25.2549 26.2758 24.6547 26.9178C24.0546 27.5599 23.2407 27.9206 22.392 27.9206L22.383 27.9121ZM7.194 17.6495C7.194 17.8188 7.14708 17.9843 7.05918 18.125C6.97127 18.2658 6.84633 18.3755 6.70015 18.4403C6.55397 18.5051 6.39311 18.522 6.23793 18.489C6.08274 18.456 5.9402 18.3744 5.82831 18.2547C5.71643 18.135 5.64024 17.9825 5.60937 17.8165C5.5785 17.6504 5.59435 17.4783 5.6549 17.3219C5.71545 17.1655 5.81798 17.0319 5.94954 16.9378C6.0811 16.8438 6.23577 16.7936 6.394 16.7936C6.49906 16.7936 6.60309 16.8157 6.70015 16.8587C6.79721 16.9017 6.8854 16.9648 6.95969 17.0443C7.03397 17.1237 7.0929 17.2181 7.1331 17.3219C7.17331 17.4258 7.194 17.5371 7.194 17.6495Z" fill="#8E7648"/>
</svg>
