<svg width="26" height="27" viewBox="0 0 26 27" fill="none" xmlns="http://www.w3.org/2000/svg">
<path fill-rule="evenodd" clip-rule="evenodd" d="M22.383 26.466H3.2C2.35131 26.466 1.53737 26.1289 0.937258 25.5288C0.337142 24.9286 0 24.1147 0 23.266L0 20.866C0 19.586 0.977 18.418 2.606 17.48C2.7345 17.384 2.89059 17.3321 3.051 17.332C3.21608 17.3323 3.37647 17.387 3.50729 17.4877C3.63811 17.5884 3.73205 17.7294 3.77455 17.8889C3.81706 18.0484 3.80574 18.2175 3.74236 18.37C3.67898 18.5224 3.56707 18.6497 3.424 18.732C2.274 19.372 1.6 20.109 1.6 20.87V23.27C1.6 23.6944 1.76857 24.1013 2.06863 24.4014C2.36869 24.7014 2.77565 24.87 3.2 24.87H22.383C22.8073 24.87 23.2143 24.7014 23.5144 24.4014C23.8144 24.1013 23.983 23.6944 23.983 23.27V20.87C23.983 18.663 18.972 16.87 12.792 16.87C11.3799 16.87 10.0079 16.4004 8.892 15.535C8.14452 14.9581 7.53279 14.2242 7.1 13.385C7.077 13.34 7.057 13.298 7.036 13.253C6.959 13.093 6.887 12.929 6.823 12.762C6.799 12.702 6.777 12.641 6.756 12.58C6.7 12.423 6.656 12.262 6.611 12.1C6.593 12.033 6.574 11.966 6.558 11.9C6.52 11.733 6.491 11.564 6.466 11.393C6.457 11.327 6.443 11.263 6.436 11.193C6.41047 10.9556 6.39845 10.7168 6.4 10.478V5.68501C6.4 4.41197 6.90571 3.19107 7.80589 2.2909C8.70606 1.39072 9.92696 0.88501 11.2 0.88501L14.4 0.88501C15.673 0.88501 16.8939 1.39072 17.7941 2.2909C18.6943 3.19107 19.2 4.41197 19.2 5.68501V10.485C19.1964 11.5474 18.9246 12.5916 18.41 13.521C18.381 13.6317 18.3287 13.7348 18.2565 13.8235C18.1842 13.9122 18.0938 13.9844 17.9914 14.0352C17.8889 14.086 17.7767 14.1142 17.6624 14.118C17.548 14.1218 17.4342 14.101 17.3286 14.057C17.223 14.013 17.1281 13.9469 17.0502 13.8632C16.9723 13.7794 16.9133 13.6799 16.8771 13.5714C16.841 13.4629 16.8285 13.3479 16.8405 13.2341C16.8526 13.1204 16.8889 13.0105 16.947 12.912L16.938 12.907C17.3131 12.2686 17.5346 11.5517 17.585 10.813C17.5961 10.704 17.6014 10.5945 17.601 10.485V5.68501C17.601 4.83632 17.2639 4.02238 16.6637 3.42227C16.0636 2.82215 15.2497 2.48501 14.401 2.48501H11.201C10.3523 2.48501 9.53837 2.82215 8.93826 3.42227C8.33814 4.02238 8.001 4.83632 8.001 5.68501V10.485C8.00063 10.5945 8.00597 10.704 8.017 10.813C8.09746 11.9879 8.6078 13.0919 9.45058 13.9144C10.2934 14.7369 11.4095 15.2202 12.586 15.272C12.6561 15.2794 12.7265 15.2827 12.797 15.282C14.1016 15.2804 15.4047 15.3693 16.697 15.548C17.014 15.592 17.324 15.642 17.63 15.696H17.653C17.947 15.749 18.234 15.807 18.516 15.869L18.616 15.891C19.176 16.017 19.716 16.16 20.222 16.318C20.247 16.327 20.272 16.332 20.296 16.341C20.544 16.419 20.786 16.503 21.02 16.589L21.094 16.617C21.3153 16.6997 21.5303 16.7857 21.739 16.875L21.792 16.898C22.011 16.992 22.219 17.089 22.421 17.19L22.496 17.228C22.696 17.328 22.891 17.434 23.074 17.542L23.087 17.55C23.262 17.65 23.425 17.76 23.587 17.868L23.672 17.927C23.83 18.039 23.981 18.153 24.121 18.269L24.166 18.307C24.304 18.424 24.435 18.543 24.554 18.664L24.572 18.682C24.6838 18.7982 24.7896 18.9201 24.889 19.047C24.91 19.076 24.934 19.102 24.955 19.131C25.0445 19.2506 25.1273 19.3752 25.203 19.504C25.211 19.52 25.22 19.535 25.229 19.551C25.295 19.6704 25.3531 19.794 25.403 19.921C25.41 19.94 25.42 19.958 25.426 19.977C25.4743 20.1072 25.5124 20.2409 25.54 20.377C25.54 20.403 25.549 20.429 25.553 20.456C25.5777 20.594 25.5908 20.7338 25.592 20.874V23.274C25.592 24.1227 25.2549 24.9366 24.6547 25.5368C24.0546 26.1369 23.2407 26.474 22.392 26.474L22.383 26.466ZM7.194 16.874C7.194 17.0322 7.14708 17.1869 7.05918 17.3185C6.97127 17.45 6.84633 17.5526 6.70015 17.6131C6.55397 17.6737 6.39311 17.6895 6.23793 17.6586C6.08274 17.6278 5.9402 17.5516 5.82831 17.4397C5.71643 17.3278 5.64024 17.1853 5.60937 17.0301C5.5785 16.8749 5.59435 16.714 5.6549 16.5679C5.71545 16.4217 5.81798 16.2967 5.94954 16.2088C6.0811 16.1209 6.23577 16.074 6.394 16.074C6.49906 16.074 6.60309 16.0947 6.70015 16.1349C6.79721 16.1751 6.8854 16.234 6.95969 16.3083C7.03397 16.3826 7.0929 16.4708 7.1331 16.5679C7.17331 16.6649 7.194 16.769 7.194 16.874Z" fill="white"/>
</svg>
