<svg width="30" height="32" viewBox="0 0 30 32" fill="none" xmlns="http://www.w3.org/2000/svg">
<path fill-rule="evenodd" clip-rule="evenodd" d="M29.739 15.008C29.7311 15.2649 29.6301 15.5086 29.4574 15.6874C29.2847 15.8662 29.0538 15.9661 28.8135 15.9661C28.5732 15.9661 28.3423 15.8662 28.1696 15.6874C27.9969 15.5086 27.8959 15.2649 27.888 15.008C27.888 14.7458 26.344 13.5101 25.978 13.1121L24.978 12.0422H25.007C24.4774 11.341 24.188 10.4669 24.187 9.56533V5.10702C24.1867 4.84435 24.0891 4.59252 23.9155 4.40678C23.7419 4.22104 23.5065 4.11657 23.261 4.11629H21.41C21.1646 4.11657 20.9293 4.22108 20.7559 4.40685C20.5824 4.59261 20.485 4.84445 20.485 5.10702V5.44726C20.4859 5.59328 20.4464 5.73633 20.3715 5.8584C20.2966 5.98047 20.1896 6.07611 20.064 6.13329C19.9384 6.19047 19.7998 6.20663 19.6656 6.17975C19.5315 6.15287 19.4077 6.08414 19.31 5.98221L16.241 2.69652C16.0693 2.51248 15.8653 2.36648 15.6408 2.26686C15.4163 2.16724 15.1756 2.11597 14.9325 2.11597C14.6894 2.11597 14.4488 2.16724 14.2242 2.26686C13.9997 2.36648 13.7957 2.51248 13.624 2.69652L2.50001 14.5939C2.32751 14.7774 2.19071 14.9956 2.09751 15.236C2.00431 15.4764 1.95655 15.7342 1.95701 15.9944H1.97701C1.95458 16.4722 2.10106 16.9416 2.38733 17.3091C2.6736 17.6767 3.07868 17.9155 3.52201 17.978C4.14577 18.1322 4.70075 18.5118 5.09333 19.0529C5.48591 19.594 5.69206 20.2633 5.67701 20.9481V27.879C5.67701 28.4042 5.87202 28.9079 6.21915 29.2793C6.56628 29.6507 7.03709 29.8594 7.52801 29.8594H10.305C10.5504 29.8594 10.7858 29.7551 10.9594 29.5696C11.1331 29.384 11.2307 29.1323 11.231 28.8697V22.4331C11.231 21.7767 11.4747 21.1471 11.9084 20.6829C12.3422 20.2186 12.9305 19.9576 13.544 19.9574H16.322C16.9355 19.9576 17.5239 20.2186 17.9576 20.6829C18.3913 21.1471 18.635 21.7767 18.635 22.4331V28.8686C18.635 29.1311 18.7325 29.3828 18.9059 29.5684C19.0794 29.754 19.3147 29.8583 19.56 29.8583H22.337C22.8278 29.858 23.2985 29.6493 23.6456 29.2779C23.9926 28.9066 24.1877 28.403 24.188 27.8779V20.9481C24.188 20.6856 24.2855 20.4339 24.4589 20.2483C24.6324 20.0627 24.8677 19.9584 25.113 19.9584C25.3583 19.9584 25.5936 20.0627 25.7671 20.2483C25.9406 20.4339 26.038 20.6856 26.038 20.9481V27.879C26.038 28.9289 25.6482 29.9358 24.9543 30.6782C24.2604 31.4206 23.3193 31.8376 22.338 31.8376H19.559C18.8228 31.8376 18.1167 31.5247 17.5961 30.9677C17.0755 30.4107 16.783 29.6553 16.783 28.8676V22.9285C16.783 22.7985 16.7591 22.6698 16.7126 22.5498C16.6661 22.4297 16.598 22.3206 16.5121 22.2287C16.4262 22.1368 16.3242 22.0639 16.212 22.0142C16.0998 21.9644 15.9795 21.9388 15.858 21.9388H14.007C13.7617 21.9388 13.5264 22.0431 13.3529 22.2287C13.1795 22.4143 13.082 22.666 13.082 22.9285V28.8686C13.082 29.6563 12.7895 30.4118 12.2689 30.9688C11.7483 31.5258 11.0422 31.8387 10.306 31.8387H7.52901C6.54771 31.8387 5.6066 31.4216 4.91271 30.6792C4.21883 29.9368 3.82901 28.9299 3.82901 27.88V20.9481C3.80557 20.6812 3.70296 20.4294 3.53617 20.2294C3.36938 20.0294 3.14716 19.8917 2.90201 19.8365C2.8937 19.8331 2.88594 19.8285 2.87901 19.8225C2.08937 19.5999 1.39076 19.104 0.892072 18.4121C0.393382 17.7203 0.122628 16.8713 0.122007 15.9976V16.217C0.0899021 15.6616 0.168221 15.1052 0.351798 14.5846C0.535374 14.064 0.820037 13.5909 1.18701 13.1966L12.315 1.29494C13.0136 0.561068 13.9535 0.149902 14.9325 0.149902C15.9115 0.149902 16.8514 0.561068 17.55 1.29494L19.177 3.03889C19.392 2.75856 19.6622 2.53254 19.9684 2.37699C20.2746 2.22144 20.6091 2.1402 20.948 2.1391H23.722C24.0258 2.13882 24.3266 2.20255 24.6073 2.32665C24.888 2.45076 25.1432 2.63281 25.3581 2.86241C25.5731 3.092 25.7437 3.36466 25.8602 3.66479C25.9767 3.96493 26.0367 4.28667 26.037 4.61166V9.56533C26.0371 10.0772 26.2237 10.5688 26.557 10.9359L28.674 13.2009C29.401 13.9776 29.739 14.3649 29.739 15.0112V15.008ZM26.962 17.978C27.145 17.978 27.3238 18.0361 27.4759 18.1448C27.628 18.2536 27.7466 18.4081 27.8166 18.589C27.8866 18.7698 27.9049 18.9688 27.8692 19.1608C27.8335 19.3527 27.7454 19.5291 27.6161 19.6675C27.4867 19.8059 27.3219 19.9002 27.1425 19.9383C26.963 19.9765 26.777 19.9569 26.608 19.882C26.439 19.8071 26.2945 19.6803 26.1929 19.5175C26.0913 19.3548 26.037 19.1634 26.037 18.9677C26.037 18.8377 26.0609 18.709 26.1074 18.589C26.1539 18.4689 26.222 18.3598 26.3079 18.2679C26.3938 18.176 26.4958 18.1031 26.608 18.0534C26.7203 18.0036 26.8405 17.978 26.962 17.978Z" fill="white"/>
</svg>
