<svg width="22" height="20" viewBox="0 0 22 20" fill="none" xmlns="http://www.w3.org/2000/svg">
<path d="M21.0079 1.35372L13.0654 19.3092C12.9893 19.4814 12.8639 19.6279 12.7052 19.7301C12.5466 19.8322 12.3618 19.8855 12.1744 19.8831C11.9869 19.8806 11.8053 19.8226 11.6525 19.7164C11.4997 19.6102 11.3827 19.4606 11.3163 19.2865L8.43247 11.7298L1.23633 8.03701C1.07059 7.95196 0.934657 7.81926 0.845788 7.65577C0.756918 7.49229 0.719122 7.30539 0.737203 7.1188C0.755282 6.93222 0.828421 6.75437 0.947331 6.60784C1.06624 6.46131 1.22556 6.35271 1.40505 6.29583L20.1214 0.36435C20.2564 0.321545 20.4004 0.318184 20.5361 0.354666C20.6719 0.391148 20.7937 0.465939 20.887 0.570147C20.9804 0.674354 21.0414 0.803594 21.0629 0.942501C21.0843 1.08141 21.0652 1.22414 21.0079 1.35372Z" fill="white"/>
</svg>
