<svg width="18" height="19" viewBox="0 0 18 19" fill="none" xmlns="http://www.w3.org/2000/svg">
<path d="M8.805 0.747009C7.06354 0.747009 5.36118 1.26341 3.91321 2.23092C2.46523 3.19843 1.33667 4.57358 0.670245 6.18248C0.00381505 7.79139 -0.170553 9.56178 0.16919 11.2698C0.508932 12.9778 1.34753 14.5467 2.57893 15.7781C3.81033 17.0095 5.37923 17.8481 7.08723 18.1878C8.79524 18.5276 10.5656 18.3532 12.1745 17.6868C13.7834 17.0203 15.1586 15.8918 16.1261 14.4438C17.0936 12.9958 17.61 11.2935 17.61 9.55201C17.6097 7.21686 16.682 4.97743 15.0308 3.32623C13.3796 1.67503 11.1402 0.747274 8.805 0.747009ZM8.992 14.679C8.11198 14.6791 7.24595 14.4587 6.473 14.038L3.679 14.771L4.427 12.041C3.84795 11.036 3.61661 9.86806 3.76887 8.71822C3.92112 7.56838 4.44846 6.50089 5.26913 5.68124C6.0898 4.86159 7.15795 4.33558 8.30798 4.18476C9.45801 4.03393 10.6257 4.26672 11.6299 4.84703C12.6342 5.42733 13.419 6.32275 13.8626 7.39444C14.3062 8.46614 14.3839 9.65424 14.0835 10.7746C13.7832 11.8949 13.1217 12.8848 12.2015 13.5909C11.2813 14.297 10.1539 14.6798 8.994 14.68L8.992 14.679Z" fill="#0C3F61"/>
<path d="M8.99403 5.02802C8.21134 5.02789 7.44289 5.23745 6.76862 5.6349C6.09434 6.03236 5.53887 6.6032 5.15994 7.28806C4.78102 7.97292 4.59248 8.74679 4.61395 9.5292C4.63543 10.3116 4.86611 11.074 5.28203 11.737L5.38204 11.903L4.93903 13.519L6.59703 13.084L6.75704 13.179C7.43189 13.5785 8.20178 13.7892 8.98604 13.789C10.1364 13.7716 11.2337 13.3025 12.041 12.4829C12.8483 11.6632 13.3008 10.559 13.3008 9.40852C13.3008 8.25807 12.8483 7.15378 12.041 6.33417C11.2337 5.51455 10.1364 5.0454 8.98604 5.02802H8.99403ZM11.57 11.289C11.473 11.449 11.344 11.5872 11.191 11.6949C11.038 11.8027 10.8644 11.8776 10.681 11.915C10.4044 11.9623 10.1206 11.9445 9.85204 11.863C9.59701 11.7839 9.34632 11.6915 9.10103 11.586C8.19174 11.1295 7.41674 10.4444 6.85204 9.59801C6.54391 9.20609 6.35691 8.73272 6.31403 8.23602C6.31011 8.03068 6.3491 7.82679 6.42848 7.63737C6.50786 7.44796 6.62589 7.27721 6.77503 7.13602C6.81899 7.0858 6.87287 7.04521 6.93327 7.01682C6.99368 6.98842 7.05932 6.97283 7.12604 6.97102C7.21404 6.97102 7.30204 6.97102 7.37804 6.97102C7.45404 6.97102 7.56703 6.94001 7.67803 7.19701C7.78903 7.45401 8.05103 8.10801 8.08403 8.17401C8.10491 8.20857 8.11686 8.24779 8.11878 8.28812C8.1207 8.32846 8.11254 8.36863 8.09503 8.40501C7.99667 8.56296 7.88671 8.71338 7.76604 8.85502C7.70804 8.92702 7.63104 8.99202 7.70804 9.12402C7.90599 9.46255 8.15299 9.76989 8.44103 10.036C8.75345 10.3135 9.11181 10.5345 9.50003 10.689C9.63203 10.755 9.70803 10.744 9.78504 10.656C9.86204 10.568 10.114 10.272 10.202 10.14C10.29 10.008 10.378 10.03 10.502 10.074C10.626 10.118 11.27 10.436 11.402 10.502C11.534 10.568 11.621 10.602 11.654 10.656C11.69 10.8677 11.6632 11.0853 11.577 11.282L11.57 11.289Z" fill="#0C3F61"/>
</svg>
